<?xml version="1.0" encoding="UTF-8" standalone="no"?><!DOCTYPE svg PUBLIC "-//W3C//DTD SVG 1.1//EN" "http://www.w3.org/Graphics/SVG/1.1/DTD/svg11.dtd"><svg width="100%" height="100%" viewBox="0 0 1253 323" version="1.1" xmlns="http://www.w3.org/2000/svg" xmlns:xlink="http://www.w3.org/1999/xlink" xml:space="preserve" xmlns:serif="http://www.serif.com/" style="fill-rule:evenodd;clip-rule:evenodd;stroke-linejoin:round;stroke-miterlimit:1.41421;"><g id="Join-Spectrum" serif:id="Join Spectrum"><path d="M1252.81,80.518c0,-44.439 -36.079,-80.518 -80.518,-80.518l-1091.78,0c-44.439,0 -80.518,36.079 -80.518,80.518l0,161.037c0,44.439 36.079,80.518 80.518,80.518l1091.78,0c44.439,0 80.518,-36.079 80.518,-80.518l0,-161.037Z" style="fill:#a400ff;"/><path id="hand" d="M236.463,89.604c2.142,3.738 0.445,8.405 -3.47,10.201l-0.79,0.361c-3.355,1.543 -7.315,0.1 -9.165,-3.101c-9.204,-15.951 -22.476,-28.087 -37.743,-35.87c-3.785,-1.927 -5.688,-6.402 -4.061,-10.332c1.612,-3.907 6.095,-5.796 9.887,-3.923c18.307,9.05 34.235,23.435 45.211,42.449l0.131,0.215Zm-19.489,10.961c1.65,2.848 0.353,6.425 -2.633,7.799l-4.36,1.996c-2.311,1.059 -5.028,0.084 -6.302,-2.119c-6.64,-11.506 -16.074,-20.387 -26.951,-26.29c-3.738,-2.034 -5.65,-6.494 -4.022,-10.424c1.612,-3.907 6.095,-5.803 9.848,-3.869c13.917,7.2 26.007,18.33 34.42,32.907Zm24.755,41.942c-0.998,2.211 -2.027,4.498 -2.579,6.832c-2.15,9.05 0,20.203 0,20.203c0,0 3.937,21.762 0,32.923c-6.563,18.599 -18.968,32.646 -39.248,32.646c-9.841,0 -21.224,-9.265 -30.366,-16.711l-0.008,0l-0.008,-0.008c-2.978,-2.425 -5.711,-4.651 -8.083,-6.302c-6.194,-4.321 -19.236,-11.836 -28.485,-17.171c-5.143,-2.963 -9.112,-5.25 -10.071,-5.934c-4.844,-3.438 -5.612,-10.024 -2.917,-14.331c2.694,-4.306 9.556,-6.985 14.807,-2.84c5.25,4.145 22.613,14.899 22.613,14.899c0,0 -27.94,-28.232 -32.876,-32.4c-4.943,-4.176 -5.581,-11.514 -1.627,-15.46c3.945,-3.945 10.163,-4.129 13.809,-1.159c3.646,2.971 33.498,31.848 33.498,31.848c0,0 -30.604,-38.61 -33.498,-42.18c-2.886,-3.569 -3.708,-9.833 0,-13.54c3.715,-3.716 10.171,-3.731 14.016,0c3.838,3.73 33.606,39.716 33.606,39.716c0,0 -20.487,-34.374 -22.875,-39.716c-2.379,-5.343 -0.23,-12.259 4.737,-14.124c4.974,-1.858 10.623,-0.415 13.832,4.068c0.882,1.221 3.323,5.711 6.524,11.599c8.536,15.689 22.476,41.312 26.506,41.312c3.661,0 3.922,-2.088 4.429,-6.179l0,-0.008c0.261,-2.103 0.591,-4.736 1.481,-7.883c2.357,-8.336 15.913,-22.407 23.573,-13.472c3.424,4 1.39,8.513 -0.79,13.372Zm6.156,96.68c-17.041,18.591 -25.884,15.697 -31.694,11.422c-12.436,-9.142 -10.793,-9.749 -3.892,-12.32c4.974,-1.843 12.665,-4.698 19.796,-12.482c6.471,-7.062 9.419,-13.594 11.407,-18.008c3.255,-7.207 3.961,-8.766 13.31,2.25c4.675,5.496 8.121,10.546 -8.927,29.138Zm-160.153,-67.004c-3.631,0.621 -6.072,4.106 -5.12,7.668c4.813,17.962 14.592,33.26 27.465,44.82c3.14,2.825 7.968,2.157 10.539,-1.205c2.579,-3.37 1.896,-8.182 -1.22,-11.076c-10.263,-9.534 -18.054,-21.977 -21.954,-36.508c-0.76,-2.84 -3.5,-4.751 -6.402,-4.26l-3.308,0.561Zm-20.794,3.531c4.037,-0.684 7.852,1.995 8.912,5.949c5.227,19.489 15.881,36.069 29.913,48.543c3.178,2.825 3.846,7.637 1.267,11.007c-2.572,3.362 -7.392,4.03 -10.586,1.251c-16.634,-14.484 -29.284,-33.912 -35.425,-56.825c-0.084,-0.315 -0.161,-0.63 -0.245,-0.952c-1.083,-4.161 1.765,-8.221 6.01,-8.943l0.154,-0.03Z" style="fill:#fffaff;"/><text x="318.221px" y="197.908px" style="font-family:'Roboto-Bold', 'Roboto';font-weight:700;font-size:132.016px;fill:#fffaff;">Join Spectrum</text></g></svg>