<?xml version="1.0" encoding="utf-8"?>
<!-- Generator: Adobe Illustrator 21.0.0, SVG Export Plug-In . SVG Version: 6.00 Build 0)  -->
<svg version="1.1" id="Layer_1" xmlns="http://www.w3.org/2000/svg" xmlns:xlink="http://www.w3.org/1999/xlink" x="0px" y="0px"
	 viewBox="0 0 491.2 72.4" style="enable-background:new 0 0 491.2 72.4;" xml:space="preserve">
<style type="text/css">
	.st0{fill:#2ECB70;}
	.st1{fill:#FFFFFF;}
	.st2{fill:#2EAAE2;}
	.st3{fill:#313E48;}
	.st4{fill:#FFC600;}
</style>
<g>
	<path class="st0" d="M60.6,7.3h41.3c2.7,0,4.8,2.2,4.8,4.8v41.3c0,2.7-2.2,4.8-4.8,4.8H60.6c-2.7,0-4.8-2.2-4.8-4.8V12.1
		C55.8,9.5,57.9,7.3,60.6,7.3z"/>
	<path class="st1" d="M80.2,27.2c0,1.1-0.5,2.2-1.5,2.8l-1.1,0.6c-0.7,0.4-1.1,1.2-1.1,2v15.6c0,1.1-0.9,2-2,2l0,0h-0.7
		c-1.1,0-2-0.9-2-2l0,0V32.6c0-0.8-0.5-1.5-1.1-2l-1-0.6c-1-0.6-1.5-1.7-1.5-2.8L69.1,16c0-0.4,0.3-0.7,0.7-0.7h0.6
		c0.4,0,0.7,0.3,0.7,0.7l0,0l0.1,8.5c0,0.2,0.2,0.4,0.4,0.4l0,0h0.5c0.2,0,0.4-0.2,0.4-0.4l0.6-8.5c0-0.4,0.3-0.7,0.7-0.7h0.6
		c0.4,0,0.7,0.3,0.7,0.7l0.6,8.5c0,0.2,0.2,0.4,0.4,0.4h0.6c0.2,0,0.4-0.2,0.4-0.4l0.1-8.5c0-0.4,0.3-0.7,0.7-0.7h0.6
		c0.4,0,0.7,0.3,0.7,0.7L80.2,27.2z"/>
	<path class="st1" d="M89.7,15.3c-2.1,0.2-3.6,2.1-3.6,4.1v12.7c0,1.5,0.9,3,2.3,3.6c0.5,0.2,0.8,0.7,0.9,1.3v11.2c0,1.1,0.9,2,2,2
		l0,0h0.8c1.1,0,2-0.9,2-2l0,0V19.3c0-2.2-1.8-4-4-4C89.9,15.3,89.8,15.3,89.7,15.3z"/>
	<path class="st2" d="M116.4,7.3h41.4c2.7,0,4.8,2.2,4.8,4.8v41.4c0,2.7-2.2,4.8-4.8,4.8h-41.4c-2.7,0-4.8-2.2-4.8-4.8V12.1
		C111.6,9.5,113.7,7.3,116.4,7.3z"/>
	<path class="st1" d="M149.2,47.5c0.3-0.3,0.4-0.8,0.3-1.2c-0.6-2.3-2.9-13.4-3.8-16.7c-0.1-0.4,0-0.9,0.3-1.2
		c1.3-1.3,6-5.8,7.4-7.4c1.1-1.2,1.1-3.1-0.2-4.3c-1.2-1.1-2.9-1.1-4.1,0c-1.6,1.4-6.1,6.1-7.4,7.4c-0.3,0.3-0.7,0.5-1.2,0.4
		c-3.3-0.8-14.4-3.2-16.7-3.8c-0.4-0.1-0.9,0-1.2,0.3c-0.6,0.6-1.2,1.2-1.8,1.8c-0.6,0.6-0.5,1.3,0.3,1.6c3,1.5,11.3,5.4,12.5,6
		c0.8,0.4,0.9,0.8,0.3,1.5c-1.3,1.6-3.5,4.2-4.8,5.9c-0.4,0.5-0.8,1-1.4,0.8c-1.2-0.1-2.3-0.3-3.4-0.4c-0.5-0.1-0.9,0.1-1.3,0.4
		c-0.4,0.4-0.8,0.8-1.2,1.2c-0.5,0.5-0.4,1.1,0.2,1.5c1.3,0.7,2.6,1.4,3.9,2.1c0.2,0.1,0.3,0.2,0.5,0.4c0.1,0.1,0.3,0.3,0.4,0.5
		c0.7,1.3,1.4,2.6,2.1,3.9c0.4,0.6,0.9,0.7,1.5,0.2c0.4-0.4,0.8-0.8,1.2-1.2c0.4-0.3,0.5-0.8,0.4-1.3c-0.2-1.1-0.3-2.2-0.4-3.4
		c-0.2-0.6,0.4-1,0.8-1.4c1.6-1.3,4.2-3.5,5.9-4.8c0.7-0.6,1.1-0.5,1.5,0.3c0.6,1.2,4.5,9.4,6,12.5c0.4,0.8,1,0.9,1.6,0.3
		C148,48.7,148.6,48.1,149.2,47.5z"/>
	<g>
		<polygon class="st3" points="167.3,58.3 202.5,58.3 202.5,47.8 180.2,47.8 180.2,37.9 199.2,37.9 199.2,27.1 180.2,27.1 
			180.2,17.7 202.5,17.7 202.5,7.3 167.3,7.3 		"/>
		<path class="st3" d="M272,17.9c-5.3,0-9.2,1.6-12.2,6h-0.2l-1.6-4.8h-9.4v53.3h12.2V55.6h0.2c2.3,2.6,5.7,3.8,10.4,3.8
			c10.7,0,18.5-9.2,18.5-20.2v-1.5C290,25.4,281.1,17.9,272,17.9z M268.9,49.3c-5.6,0-8.2-4.8-8.2-10.7c0-5.9,2.6-10.5,8.2-10.5
			s8.2,4.8,8.2,10.7C277,44.7,274.4,49.3,268.9,49.3L268.9,49.3z"/>
		<path class="st3" d="M331.6,37.3c0-13.2-9.3-19.5-19.4-19.5c-11.3,0-20.2,8-20.2,20.3v1.3c0,12.5,9.6,20.1,20.7,20.1
			c9,0,17-4.4,18.9-13.5h-11.5c-1.2,3.1-3.9,4.1-7.1,4.1c-5.1,0-7.9-3.5-8.5-8.5h27C331.5,40.8,331.6,38.9,331.6,37.3z M304.7,33.8
			c0.6-4.1,3-7.2,7.8-7.2c4.2,0,6.9,2.9,6.9,7.2H304.7z"/>
		<path class="st3" d="M357.4,17.9c-5,0-8.9,1.9-11.6,6.3h-0.2l-1.6-5.1h-9.6v39.2h12.3V35.5c0-5,2.4-7.4,6.4-7.4c3.4,0,6,2.2,6,7.4
			v22.7h12.5V31.8C371.6,24.2,367,17.9,357.4,17.9z"/>
		<path class="st3" d="M390.2,32.9c-2.1-0.4-3.5-1.4-3.5-3.5c0-1.8,1.3-3.2,4.1-3.2c3.1,0,4.6,1.6,4.6,4.2h11.2v-0.9
			c0-8.2-7.6-11.7-16-11.7c-7.5,0-16.1,3.2-16.1,12.4v0.6c0,2.7,1,5.3,2.9,7.3c3.9,3.9,9.9,4.3,13.9,5.3c3.4,0.9,4.2,2.4,4.2,4.2
			c0,2.4-1.9,3.5-4.7,3.5c-3.4,0-5.4-1.9-5.6-5.6h-11.1v0.9c0.4,9.6,7.8,13.1,16.8,13.1c8,0,16.8-3.7,16.8-12.9v-0.8
			c0-2.7-0.9-5.4-2.6-7.2C401.1,34.4,395.1,33.7,390.2,32.9z"/>
		<rect x="410.1" y="19.1" class="st3" width="12.4" height="39.2"/>
		<polygon class="st3" points="246.1,19.1 232.5,19.1 225.9,29 219.3,19.1 205.1,19.1 218.6,37.6 203.3,58.3 217.1,58.3 225.4,46.5 
			233.7,58.3 247.8,58.3 232.8,37.2 		"/>
		<path class="st3" d="M416.2,0c-4.1,0-7.4,3.3-7.4,7.4s3.3,7.4,7.4,7.4s7.4-3.3,7.4-7.4l0,0C423.6,3.3,420.3,0,416.2,0L416.2,0z"/>
		<path class="st3" d="M444.8,19.1v-1.3c0-3.3,2.3-6.7,6-6.8c0.6,0,3.6-0.1,3.6-0.1L454.5,0H450c-10.6,0.2-17.5,8.3-17.5,18.4v0.7
			h-7.3v9.4h7.3v29.8h12.4V28.4h8.1l10.4,27.1l-7.2,16.8h13l22-53.3h-12.9l-8.5,23.5L461.9,19L444.8,19.1z"/>
		<polygon class="st3" points="167.3,58.3 202.5,58.3 202.5,47.8 180.2,47.8 180.2,37.9 199.2,37.9 199.2,27.1 180.2,27.1 
			180.2,17.7 202.5,17.7 202.5,7.3 167.3,7.3 		"/>
		<path class="st3" d="M272,17.9c-5.3,0-9.2,1.6-12.2,6h-0.2l-1.6-4.8h-9.4v53.3h12.2V55.6h0.2c2.3,2.6,5.7,3.8,10.4,3.8
			c10.7,0,18.5-9.2,18.5-20.2v-1.5C290,25.4,281.1,17.9,272,17.9z M268.9,49.3c-5.6,0-8.2-4.8-8.2-10.7c0-5.9,2.6-10.5,8.2-10.5
			s8.2,4.8,8.2,10.7C277,44.7,274.4,49.3,268.9,49.3L268.9,49.3z"/>
		<path class="st3" d="M331.6,37.3c0-13.2-9.3-19.5-19.4-19.5c-11.3,0-20.2,8-20.2,20.3v1.3c0,12.5,9.6,20.1,20.7,20.1
			c9,0,17-4.4,18.9-13.5h-11.5c-1.2,3.1-3.9,4.1-7.1,4.1c-5.1,0-7.9-3.5-8.5-8.5h27C331.5,40.8,331.6,38.9,331.6,37.3z M304.7,33.8
			c0.6-4.1,3-7.2,7.8-7.2c4.2,0,6.9,2.9,6.9,7.2H304.7z"/>
		<path class="st3" d="M357.4,17.9c-5,0-8.9,1.9-11.6,6.3h-0.2l-1.6-5.1h-9.6v39.2h12.3V35.5c0-5,2.4-7.4,6.4-7.4c3.4,0,6,2.2,6,7.4
			v22.7h12.5V31.8C371.6,24.2,367,17.9,357.4,17.9z"/>
		<path class="st3" d="M390.2,32.9c-2.1-0.4-3.5-1.4-3.5-3.5c0-1.8,1.3-3.2,4.1-3.2c3.1,0,4.6,1.6,4.6,4.2h11.2v-0.9
			c0-8.2-7.6-11.7-16-11.7c-7.5,0-16.1,3.2-16.1,12.4v0.6c0,2.7,1,5.3,2.9,7.3c3.9,3.9,9.9,4.3,13.9,5.3c3.4,0.9,4.2,2.4,4.2,4.2
			c0,2.4-1.9,3.5-4.7,3.5c-3.4,0-5.4-1.9-5.6-5.6h-11.1v0.9c0.4,9.6,7.8,13.1,16.8,13.1c8,0,16.8-3.7,16.8-12.9v-0.8
			c0-2.7-0.9-5.4-2.6-7.2C401.1,34.4,395.1,33.7,390.2,32.9z"/>
		<rect x="410.1" y="19.1" class="st3" width="12.4" height="39.2"/>
		<polygon class="st3" points="246.1,19.1 232.5,19.1 225.9,29 219.3,19.1 205.1,19.1 218.6,37.6 203.3,58.3 217.1,58.3 225.4,46.5 
			233.7,58.3 247.8,58.3 232.8,37.2 		"/>
		<path class="st3" d="M416.2,0c-4.1,0-7.4,3.3-7.4,7.4s3.3,7.4,7.4,7.4s7.4-3.3,7.4-7.4l0,0C423.6,3.3,420.3,0,416.2,0L416.2,0z"/>
		<path class="st3" d="M444.8,19.1v-1.3c0-3.3,2.3-6.7,6-6.8c0.6,0,3.6-0.1,3.6-0.1L454.5,0H450c-10.6,0.2-17.5,8.3-17.5,18.4v0.7
			h-7.3v9.4h7.3v29.8h12.4V28.4h8.1l10.4,27.1l-7.2,16.8h13l22-53.3h-12.9l-8.5,23.5L461.9,19L444.8,19.1z"/>
	</g>
	<path class="st4" d="M4.8,7.3h41.3c2.7,0,4.8,2.2,4.8,4.8v41.3c0,2.7-2.2,4.8-4.8,4.8H4.8C2.1,58.2,0,56,0,53.4V12.1
		C0,9.5,2.2,7.3,4.8,7.3z"/>
	<path class="st1" d="M44.2,27c-0.2-0.6-0.7-0.6-1.2-0.6c-0.7,0-1.4,0-2.1,0c-0.5,0-0.7-0.2-0.9-0.7c-0.6-1.5-1.4-3.5-2.1-5
		c-0.8-1.6-2.2-3-4-3.1c-2.7,0-13.9,0-16.7,0c-1.8,0-3.2,1.4-4,3.1c-0.7,1.5-1.5,3.5-2.1,5c-0.2,0.5-0.4,0.7-0.9,0.7
		c-0.7,0-1.4,0-2.1,0c-0.5,0-1,0-1.2,0.6s-0.2,1.3,0.2,1.8c0.5,0.6,1,0.7,1.7,0.8c0.7,0.1,0.8,0.4,0.6,0.9c-0.6,1.5-0.9,5.7-0.9,7.8
		c0,2.5,0,5.5,0,7.9c0,1.4,0.5,1.8,1.7,1.8c1.2,0,3.2,0.1,4.5,0c0.9,0,1.4-0.7,1.4-1.7c0-0.8,0-2,0-2.8s0.1-1.1,0.9-1.1h17.4
		c0.8,0,0.9,0.2,0.9,1.1c0,0.8,0,2,0,2.8c0,1,0.5,1.6,1.4,1.7c1.3,0.1,3.4,0,4.5,0s1.6-0.4,1.7-1.8c0-2.5,0-5.5,0-7.9
		c0-2.1-0.2-6.4-0.9-7.8c-0.2-0.5-0.1-0.8,0.6-0.9c0.6-0.1,1.2-0.2,1.7-0.8C44.4,28.3,44.4,27.6,44.2,27z M14.3,37.8
		c-1.3,0.1-2.5-1-2.5-2.3c0-0.1,0-0.1,0-0.2c0-1.5,0.9-2.6,2.5-2.6c1.7,0,2.6,1.1,2.6,2.6c0,1.3-1,2.5-2.3,2.5
		C14.5,37.8,14.4,37.8,14.3,37.8z M14.7,29.6c-1.5,0-1.5,0-1-1.6s1-3.1,1.6-4.7c0.6-1.8,1.4-2.5,3.1-2.5h14.2c1.7,0,2.5,0.6,3.1,2.5
		c0.5,1.6,1.1,3.1,1.6,4.7s0.5,1.6-1,1.6H14.7z M36.6,37.8c-1.3,0.1-2.5-1-2.5-2.3c0-0.1,0-0.1,0-0.2c0-1.5,0.9-2.6,2.5-2.6
		s2.6,1.1,2.5,2.6c0,1.3-1,2.5-2.3,2.5C36.8,37.8,36.7,37.8,36.6,37.8L36.6,37.8z"/>
</g>
</svg>
