<?xml version="1.0" encoding="UTF-8" standalone="no"?><!DOCTYPE svg PUBLIC "-//W3C//DTD SVG 1.1//EN" "http://www.w3.org/Graphics/SVG/1.1/DTD/svg11.dtd"><svg width="100%" height="100%" viewBox="0 0 700 99" version="1.1" xmlns="http://www.w3.org/2000/svg" xmlns:xlink="http://www.w3.org/1999/xlink" xml:space="preserve" xmlns:serif="http://www.serif.com/" style="fill-rule:evenodd;clip-rule:evenodd;stroke-linejoin:round;stroke-miterlimit:1.41421;"><rect id="ck-googleplay-demo-button" x="0" y="0" width="699" height="99" style="fill:none;"/><path id="background" d="M699,9.982c0,-4.474 -3.632,-8.106 -8.105,-8.106l-682.79,0c-4.473,0 -8.105,3.632 -8.105,8.106l0,79.789c0,4.474 3.632,8.105 8.105,8.105l682.79,0c4.473,0 8.105,-3.631 8.105,-8.105l0,-79.789Z"/><g id="Content"><g id="text"><path d="M125.967,58.285c-0.867,1.242 -2.077,2.171 -3.63,2.786c-1.553,0.615 -3.361,0.923 -5.423,0.923c-2.086,0 -3.938,-0.49 -5.555,-1.468c-1.617,-0.979 -2.868,-2.37 -3.753,-4.175c-0.884,-1.805 -1.338,-3.896 -1.362,-6.275l0,-2.233c0,-3.855 0.899,-6.843 2.698,-8.965c1.799,-2.121 4.327,-3.181 7.585,-3.181c2.672,0 4.823,0.682 6.451,2.048c1.629,1.365 2.625,3.301 2.989,5.809l-3.375,0c-0.633,-3.398 -2.649,-5.097 -6.047,-5.097c-2.262,0 -3.976,0.794 -5.142,2.383c-1.166,1.59 -1.755,3.891 -1.766,6.906l0,2.093c0,2.874 0.656,5.158 1.968,6.853c1.313,1.694 3.088,2.542 5.327,2.542c1.265,0 2.373,-0.14 3.322,-0.421c0.949,-0.281 1.734,-0.754 2.355,-1.42l0,-5.735l-5.924,0l0,-2.76l9.282,0l0,9.387Z" style="fill:#fff;fill-rule:nonzero;"/><path d="M138.975,61.994c-2.579,0 -4.676,-0.847 -6.293,-2.54c-1.618,-1.694 -2.426,-3.958 -2.426,-6.794l0,-0.598c0,-1.887 0.36,-3.571 1.081,-5.054c0.721,-1.482 1.728,-2.642 3.023,-3.48c1.295,-0.838 2.699,-1.257 4.21,-1.257c2.473,0 4.395,0.814 5.766,2.443c1.371,1.629 2.057,3.961 2.057,6.996l0,1.354l-12.885,0c0.047,1.875 0.594,3.39 1.643,4.544c1.049,1.154 2.382,1.731 3.999,1.731c1.149,0 2.121,-0.234 2.918,-0.703c0.797,-0.469 1.494,-1.09 2.092,-1.863l1.986,1.547c-1.593,2.449 -3.984,3.674 -7.171,3.674Zm-0.405,-17.051c-1.312,0 -2.414,0.477 -3.304,1.433c-0.891,0.955 -1.442,2.293 -1.653,4.016l9.528,0l0,-0.246c-0.094,-1.652 -0.54,-2.933 -1.336,-3.841c-0.797,-0.908 -1.875,-1.362 -3.235,-1.362Z" style="fill:#fff;fill-rule:nonzero;"/><path d="M154.566,38.017l0,4.606l3.551,0l0,2.513l-3.551,0l0,11.81c0,0.763 0.159,1.335 0.475,1.716c0.316,0.381 0.855,0.572 1.617,0.572c0.375,0 0.891,-0.07 1.547,-0.211l0,2.621c-0.855,0.233 -1.687,0.35 -2.496,0.35c-1.453,0 -2.549,-0.44 -3.287,-1.319c-0.738,-0.879 -1.108,-2.127 -1.108,-3.744l0,-11.795l-3.463,0l0,-2.513l3.463,0l0,-4.606l3.252,0Z" style="fill:#fff;fill-rule:nonzero;"/><path d="M175.238,38.017l0,4.606l3.551,0l0,2.513l-3.551,0l0,11.81c0,0.763 0.158,1.335 0.475,1.716c0.316,0.381 0.855,0.572 1.617,0.572c0.375,0 0.891,-0.07 1.547,-0.211l0,2.621c-0.856,0.233 -1.688,0.35 -2.496,0.35c-1.453,0 -2.549,-0.44 -3.287,-1.319c-0.739,-0.879 -1.108,-2.127 -1.108,-3.744l0,-11.795l-3.463,0l0,-2.513l3.463,0l0,-4.606l3.252,0Z" style="fill:#fff;fill-rule:nonzero;"/><path d="M185.838,44.925c1.441,-1.769 3.316,-2.654 5.625,-2.654c4.019,0 6.047,2.268 6.082,6.803l0,12.568l-3.252,0l0,-12.586c-0.012,-1.371 -0.325,-2.385 -0.941,-3.041c-0.615,-0.656 -1.573,-0.984 -2.874,-0.984c-1.054,0 -1.98,0.281 -2.777,0.844c-0.797,0.562 -1.418,1.3 -1.863,2.214l0,13.553l-3.252,0l0,-27l3.252,0l0,10.283Z" style="fill:#fff;fill-rule:nonzero;"/><path d="M210.307,61.994c-2.579,0 -4.676,-0.847 -6.293,-2.54c-1.618,-1.694 -2.426,-3.958 -2.426,-6.794l0,-0.598c0,-1.887 0.36,-3.571 1.081,-5.054c0.721,-1.482 1.728,-2.642 3.023,-3.48c1.295,-0.838 2.699,-1.257 4.21,-1.257c2.473,0 4.395,0.814 5.766,2.443c1.371,1.629 2.057,3.961 2.057,6.996l0,1.354l-12.885,0c0.047,1.875 0.595,3.39 1.643,4.544c1.049,1.154 2.382,1.731 3.999,1.731c1.149,0 2.121,-0.234 2.918,-0.703c0.797,-0.469 1.494,-1.09 2.092,-1.863l1.986,1.547c-1.593,2.449 -3.984,3.674 -7.171,3.674Zm-0.405,-17.051c-1.312,0 -2.414,0.477 -3.304,1.433c-0.891,0.955 -1.442,2.293 -1.653,4.016l9.528,0l0,-0.246c-0.094,-1.652 -0.539,-2.933 -1.336,-3.841c-0.797,-0.908 -1.875,-1.362 -3.235,-1.362Z" style="fill:#fff;fill-rule:nonzero;"/><path d="M241.473,56.597c0,-0.879 -0.331,-1.561 -0.994,-2.048c-0.662,-0.486 -1.816,-0.905 -3.462,-1.257c-1.647,-0.351 -2.954,-0.773 -3.92,-1.265c-0.967,-0.492 -1.682,-1.078 -2.145,-1.758c-0.463,-0.68 -0.694,-1.488 -0.694,-2.426c0,-1.558 0.659,-2.877 1.977,-3.955c1.319,-1.078 3.003,-1.617 5.054,-1.617c2.156,0 3.905,0.557 5.247,1.67c1.342,1.113 2.013,2.537 2.013,4.271l-3.27,0c0,-0.89 -0.378,-1.658 -1.134,-2.302c-0.755,-0.645 -1.708,-0.967 -2.856,-0.967c-1.184,0 -2.109,0.258 -2.777,0.773c-0.668,0.516 -1.002,1.19 -1.002,2.022c0,0.785 0.31,1.377 0.931,1.775c0.621,0.399 1.744,0.779 3.367,1.143c1.623,0.363 2.938,0.797 3.946,1.301c1.008,0.503 1.755,1.11 2.241,1.819c0.486,0.709 0.73,1.573 0.73,2.593c0,1.699 -0.68,3.061 -2.04,4.087c-1.359,1.025 -3.123,1.538 -5.291,1.538c-1.523,0 -2.871,-0.27 -4.043,-0.809c-1.171,-0.539 -2.088,-1.292 -2.75,-2.259c-0.663,-0.967 -0.994,-2.012 -0.994,-3.137l3.252,0c0.059,1.089 0.495,1.954 1.31,2.592c0.814,0.639 1.89,0.958 3.225,0.958c1.231,0 2.218,-0.249 2.962,-0.747c0.745,-0.498 1.117,-1.163 1.117,-1.995Z" style="fill:#fff;fill-rule:nonzero;"/><path d="M260.703,61.642c-0.187,-0.375 -0.34,-1.043 -0.457,-2.004c-1.512,1.571 -3.316,2.356 -5.414,2.356c-1.875,0 -3.413,-0.531 -4.614,-1.591c-1.201,-1.061 -1.802,-2.405 -1.802,-4.034c0,-1.981 0.753,-3.519 2.259,-4.615c1.506,-1.095 3.624,-1.643 6.354,-1.643l3.164,0l0,-1.494c0,-1.137 -0.34,-2.042 -1.019,-2.716c-0.68,-0.674 -1.682,-1.011 -3.006,-1.011c-1.16,0 -2.133,0.293 -2.918,0.879c-0.785,0.586 -1.178,1.295 -1.178,2.127l-3.269,0c0,-0.949 0.337,-1.866 1.01,-2.751c0.674,-0.885 1.588,-1.585 2.743,-2.101c1.154,-0.515 2.422,-0.773 3.805,-0.773c2.192,0 3.908,0.548 5.151,1.644c1.242,1.095 1.886,2.604 1.933,4.526l0,8.754c0,1.746 0.223,3.135 0.668,4.166l0,0.281l-3.41,0Zm-5.396,-2.478c1.019,0 1.986,-0.264 2.9,-0.791c0.914,-0.528 1.576,-1.213 1.986,-2.057l0,-3.902l-2.549,0c-3.984,0 -5.976,1.166 -5.976,3.498c0,1.019 0.34,1.816 1.019,2.39c0.68,0.574 1.553,0.862 2.62,0.862Z" style="fill:#fff;fill-rule:nonzero;"/><path d="M271.601,42.623l0.088,2.109c1.395,-1.641 3.276,-2.461 5.643,-2.461c2.66,0 4.471,1.02 5.432,3.059c0.632,-0.914 1.456,-1.653 2.469,-2.215c1.014,-0.563 2.212,-0.844 3.595,-0.844c4.172,0 6.293,2.209 6.363,6.627l0,12.744l-3.252,0l0,-12.551c0,-1.359 -0.31,-2.376 -0.931,-3.049c-0.621,-0.674 -1.664,-1.011 -3.129,-1.011c-1.207,0 -2.209,0.36 -3.006,1.081c-0.797,0.721 -1.26,1.69 -1.389,2.909l0,12.621l-3.269,0l0,-12.463c0,-2.765 -1.354,-4.148 -4.061,-4.148c-2.133,0 -3.592,0.908 -4.377,2.724l0,13.887l-3.252,0l0,-19.019l3.076,0Z" style="fill:#fff;fill-rule:nonzero;"/><path d="M316.162,52.343c0,2.895 -0.662,5.227 -1.986,6.996c-1.325,1.77 -3.117,2.655 -5.379,2.655c-2.309,0 -4.125,-0.733 -5.449,-2.198l0,9.159l-3.252,0l0,-26.332l2.97,0l0.159,2.109c1.324,-1.641 3.164,-2.461 5.519,-2.461c2.285,0 4.093,0.861 5.423,2.584c1.33,1.723 1.995,4.119 1.995,7.189l0,0.299Zm-3.252,-0.369c0,-2.144 -0.457,-3.838 -1.371,-5.08c-0.914,-1.242 -2.168,-1.863 -3.762,-1.863c-1.968,0 -3.445,0.873 -4.429,2.619l0,9.088c0.972,1.734 2.461,2.601 4.464,2.601c1.559,0 2.798,-0.618 3.718,-1.854c0.92,-1.236 1.38,-3.073 1.38,-5.511Z" style="fill:#fff;fill-rule:nonzero;"/><rect x="320.574" y="34.642" width="3.252" height="27" style="fill:#fff;fill-rule:nonzero;"/><path d="M336.922,61.994c-2.578,0 -4.676,-0.847 -6.293,-2.54c-1.617,-1.694 -2.426,-3.958 -2.426,-6.794l0,-0.598c0,-1.887 0.36,-3.571 1.081,-5.054c0.721,-1.482 1.729,-2.642 3.024,-3.48c1.294,-0.838 2.698,-1.257 4.21,-1.257c2.472,0 4.394,0.814 5.765,2.443c1.371,1.629 2.057,3.961 2.057,6.996l0,1.354l-12.885,0c0.047,1.875 0.595,3.39 1.644,4.544c1.048,1.154 2.381,1.731 3.999,1.731c1.148,0 2.121,-0.234 2.918,-0.703c0.796,-0.469 1.494,-1.09 2.091,-1.863l1.987,1.547c-1.594,2.449 -3.985,3.674 -7.172,3.674Zm-0.404,-17.051c-1.313,0 -2.415,0.477 -3.305,1.433c-0.891,0.955 -1.442,2.293 -1.653,4.016l9.528,0l0,-0.246c-0.094,-1.652 -0.539,-2.933 -1.336,-3.841c-0.797,-0.908 -1.875,-1.362 -3.234,-1.362Z" style="fill:#fff;fill-rule:nonzero;"/><path d="M368.756,61.642c-0.188,-0.375 -0.34,-1.043 -0.457,-2.004c-1.512,1.571 -3.317,2.356 -5.414,2.356c-1.875,0 -3.413,-0.531 -4.615,-1.591c-1.201,-1.061 -1.801,-2.405 -1.801,-4.034c0,-1.981 0.753,-3.519 2.258,-4.615c1.506,-1.095 3.624,-1.643 6.355,-1.643l3.164,0l0,-1.494c0,-1.137 -0.34,-2.042 -1.02,-2.716c-0.679,-0.674 -1.681,-1.011 -3.005,-1.011c-1.161,0 -2.133,0.293 -2.918,0.879c-0.785,0.586 -1.178,1.295 -1.178,2.127l-3.27,0c0,-0.949 0.337,-1.866 1.011,-2.751c0.674,-0.885 1.588,-1.585 2.742,-2.101c1.155,-0.515 2.423,-0.773 3.806,-0.773c2.191,0 3.908,0.548 5.15,1.644c1.243,1.095 1.887,2.604 1.934,4.526l0,8.754c0,1.746 0.223,3.135 0.668,4.166l0,0.281l-3.41,0Zm-5.397,-2.478c1.02,0 1.987,-0.264 2.901,-0.791c0.914,-0.528 1.576,-1.213 1.986,-2.057l0,-3.902l-2.549,0c-3.984,0 -5.976,1.166 -5.976,3.498c0,1.019 0.339,1.816 1.019,2.39c0.68,0.574 1.553,0.862 2.619,0.862Z" style="fill:#fff;fill-rule:nonzero;"/><path d="M392.662,52.343c0,2.895 -0.662,5.227 -1.986,6.996c-1.325,1.77 -3.117,2.655 -5.379,2.655c-2.309,0 -4.125,-0.733 -5.449,-2.198l0,9.159l-3.252,0l0,-26.332l2.97,0l0.159,2.109c1.324,-1.641 3.164,-2.461 5.519,-2.461c2.285,0 4.093,0.861 5.423,2.584c1.33,1.723 1.995,4.119 1.995,7.189l0,0.299Zm-3.252,-0.369c0,-2.144 -0.457,-3.838 -1.371,-5.08c-0.914,-1.242 -2.168,-1.863 -3.762,-1.863c-1.968,0 -3.445,0.873 -4.429,2.619l0,9.088c0.972,1.734 2.461,2.601 4.464,2.601c1.559,0 2.798,-0.618 3.718,-1.854c0.92,-1.236 1.38,-3.073 1.38,-5.511Z" style="fill:#fff;fill-rule:nonzero;"/><path d="M412.859,52.343c0,2.895 -0.662,5.227 -1.986,6.996c-1.324,1.77 -3.117,2.655 -5.379,2.655c-2.309,0 -4.125,-0.733 -5.449,-2.198l0,9.159l-3.252,0l0,-26.332l2.971,0l0.158,2.109c1.324,-1.641 3.164,-2.461 5.519,-2.461c2.285,0 4.093,0.861 5.423,2.584c1.33,1.723 1.995,4.119 1.995,7.189l0,0.299Zm-3.252,-0.369c0,-2.144 -0.457,-3.838 -1.371,-5.08c-0.914,-1.242 -2.168,-1.863 -3.761,-1.863c-1.969,0 -3.446,0.873 -4.43,2.619l0,9.088c0.973,1.734 2.461,2.601 4.465,2.601c1.558,0 2.798,-0.618 3.717,-1.854c0.92,-1.236 1.38,-3.073 1.38,-5.511Z" style="fill:#fff;fill-rule:nonzero;"/><path d="M425.041,51.957c0,-1.864 0.366,-3.54 1.099,-5.028c0.732,-1.488 1.752,-2.637 3.058,-3.445c1.307,-0.809 2.798,-1.213 4.474,-1.213c2.59,0 4.684,0.896 6.284,2.689c1.6,1.793 2.399,4.178 2.399,7.155l0,0.228c0,1.852 -0.354,3.513 -1.063,4.984c-0.709,1.47 -1.723,2.616 -3.041,3.436c-1.318,0.821 -2.833,1.231 -4.544,1.231c-2.578,0 -4.667,-0.897 -6.267,-2.69c-1.599,-1.793 -2.399,-4.166 -2.399,-7.119l0,-0.228Zm3.269,0.386c0,2.11 0.49,3.803 1.468,5.08c0.979,1.278 2.288,1.916 3.929,1.916c1.652,0 2.965,-0.647 3.937,-1.942c0.973,-1.295 1.459,-3.108 1.459,-5.44c0,-2.086 -0.495,-3.777 -1.485,-5.072c-0.99,-1.295 -2.306,-1.942 -3.946,-1.942c-1.606,0 -2.901,0.639 -3.885,1.916c-0.984,1.277 -1.477,3.105 -1.477,5.484Z" style="fill:#fff;fill-rule:nonzero;"/><path d="M449.51,42.623l0.105,2.39c1.453,-1.828 3.352,-2.742 5.695,-2.742c4.02,0 6.047,2.268 6.083,6.803l0,12.568l-3.252,0l0,-12.586c-0.012,-1.371 -0.326,-2.385 -0.941,-3.041c-0.615,-0.656 -1.573,-0.984 -2.874,-0.984c-1.055,0 -1.98,0.281 -2.777,0.844c-0.797,0.562 -1.418,1.3 -1.864,2.214l0,13.553l-3.251,0l0,-19.019l3.076,0Z" style="fill:#fff;fill-rule:nonzero;"/><path d="M494.615,58.285c-0.867,1.242 -2.077,2.171 -3.63,2.786c-1.552,0.615 -3.36,0.923 -5.423,0.923c-2.086,0 -3.937,-0.49 -5.554,-1.468c-1.617,-0.979 -2.868,-2.37 -3.753,-4.175c-0.885,-1.805 -1.339,-3.896 -1.362,-6.275l0,-2.233c0,-3.855 0.899,-6.843 2.698,-8.965c1.799,-2.121 4.327,-3.181 7.585,-3.181c2.672,0 4.822,0.682 6.451,2.048c1.629,1.365 2.625,3.301 2.988,5.809l-3.375,0c-0.633,-3.398 -2.648,-5.097 -6.047,-5.097c-2.261,0 -3.975,0.794 -5.141,2.383c-1.166,1.59 -1.755,3.891 -1.767,6.906l0,2.093c0,2.874 0.656,5.158 1.969,6.853c1.312,1.694 3.088,2.542 5.326,2.542c1.266,0 2.373,-0.14 3.322,-0.421c0.949,-0.281 1.735,-0.754 2.356,-1.42l0,-5.735l-5.924,0l0,-2.76l9.281,0l0,9.387Z" style="fill:#fff;fill-rule:nonzero;"/><path d="M498.869,51.957c0,-1.864 0.366,-3.54 1.099,-5.028c0.732,-1.488 1.752,-2.637 3.058,-3.445c1.307,-0.809 2.798,-1.213 4.474,-1.213c2.59,0 4.685,0.896 6.284,2.689c1.6,1.793 2.4,4.178 2.4,7.155l0,0.228c0,1.852 -0.355,3.513 -1.064,4.984c-0.709,1.47 -1.723,2.616 -3.041,3.436c-1.318,0.821 -2.833,1.231 -4.544,1.231c-2.578,0 -4.667,-0.897 -6.267,-2.69c-1.599,-1.793 -2.399,-4.166 -2.399,-7.119l0,-0.228Zm3.27,0.386c0,2.11 0.489,3.803 1.467,5.08c0.979,1.278 2.288,1.916 3.929,1.916c1.652,0 2.965,-0.647 3.938,-1.942c0.972,-1.295 1.459,-3.108 1.459,-5.44c0,-2.086 -0.496,-3.777 -1.486,-5.072c-0.99,-1.295 -2.305,-1.942 -3.946,-1.942c-1.606,0 -2.9,0.639 -3.885,1.916c-0.984,1.277 -1.476,3.105 -1.476,5.484Z" style="fill:#fff;fill-rule:nonzero;"/><path d="M519.4,51.957c0,-1.864 0.367,-3.54 1.099,-5.028c0.732,-1.488 1.752,-2.637 3.059,-3.445c1.306,-0.809 2.797,-1.213 4.473,-1.213c2.59,0 4.685,0.896 6.284,2.689c1.6,1.793 2.4,4.178 2.4,7.155l0,0.228c0,1.852 -0.355,3.513 -1.064,4.984c-0.709,1.47 -1.722,2.616 -3.041,3.436c-1.318,0.821 -2.833,1.231 -4.544,1.231c-2.578,0 -4.667,-0.897 -6.266,-2.69c-1.6,-1.793 -2.4,-4.166 -2.4,-7.119l0,-0.228Zm3.27,0.386c0,2.11 0.489,3.803 1.468,5.08c0.978,1.278 2.288,1.916 3.928,1.916c1.653,0 2.965,-0.647 3.938,-1.942c0.972,-1.295 1.459,-3.108 1.459,-5.44c0,-2.086 -0.495,-3.777 -1.486,-5.072c-0.99,-1.295 -2.305,-1.942 -3.946,-1.942c-1.605,0 -2.9,0.639 -3.885,1.916c-0.984,1.277 -1.476,3.105 -1.476,5.484Z" style="fill:#fff;fill-rule:nonzero;"/><path d="M540.019,51.974c0,-2.965 0.686,-5.323 2.057,-7.075c1.371,-1.752 3.188,-2.628 5.449,-2.628c2.321,0 4.131,0.82 5.432,2.461l0.158,-2.109l2.971,0l0,18.562c0,2.461 -0.73,4.4 -2.189,5.818c-1.459,1.418 -3.419,2.127 -5.879,2.127c-1.372,0 -2.713,-0.293 -4.026,-0.879c-1.312,-0.585 -2.314,-1.388 -3.006,-2.408l1.688,-1.951c1.394,1.723 3.099,2.584 5.115,2.584c1.582,0 2.815,-0.445 3.7,-1.336c0.885,-0.89 1.327,-2.144 1.327,-3.762l0,-1.634c-1.3,1.5 -3.076,2.25 -5.326,2.25c-2.226,0 -4.028,-0.897 -5.405,-2.69c-1.377,-1.793 -2.066,-4.236 -2.066,-7.33Zm3.27,0.369c0,2.145 0.439,3.829 1.318,5.054c0.879,1.225 2.11,1.837 3.692,1.837c2.051,0 3.556,-0.932 4.517,-2.795l0,-8.684c-0.996,-1.816 -2.49,-2.724 -4.482,-2.724c-1.582,0 -2.818,0.615 -3.709,1.845c-0.891,1.231 -1.336,3.053 -1.336,5.467Z" style="fill:#fff;fill-rule:nonzero;"/><rect x="561.271" y="34.642" width="3.252" height="27" style="fill:#fff;fill-rule:nonzero;"/><path d="M577.619,61.994c-2.578,0 -4.676,-0.847 -6.293,-2.54c-1.617,-1.694 -2.426,-3.958 -2.426,-6.794l0,-0.598c0,-1.887 0.361,-3.571 1.081,-5.054c0.721,-1.482 1.729,-2.642 3.024,-3.48c1.295,-0.838 2.698,-1.257 4.21,-1.257c2.472,0 4.394,0.814 5.765,2.443c1.371,1.629 2.057,3.961 2.057,6.996l0,1.354l-12.885,0c0.047,1.875 0.595,3.39 1.644,4.544c1.049,1.154 2.382,1.731 3.999,1.731c1.148,0 2.121,-0.234 2.918,-0.703c0.797,-0.469 1.494,-1.09 2.092,-1.863l1.986,1.547c-1.594,2.449 -3.984,3.674 -7.172,3.674Zm-0.404,-17.051c-1.313,0 -2.414,0.477 -3.305,1.433c-0.891,0.955 -1.441,2.293 -1.652,4.016l9.527,0l0,-0.246c-0.094,-1.652 -0.539,-2.933 -1.336,-3.841c-0.797,-0.908 -1.875,-1.362 -3.234,-1.362Z" style="fill:#fff;fill-rule:nonzero;"/><path d="M601.596,51.623l0,10.019l-3.375,0l0,-25.594l9.439,0c2.801,0 4.995,0.715 6.583,2.145c1.588,1.43 2.382,3.322 2.382,5.678c0,2.484 -0.776,4.397 -2.329,5.739c-1.553,1.342 -3.777,2.013 -6.671,2.013l-6.029,0Zm0,-2.76l6.064,0c1.805,0 3.188,-0.426 4.149,-1.277c0.96,-0.851 1.441,-2.081 1.441,-3.689c0,-1.526 -0.481,-2.747 -1.441,-3.663c-0.961,-0.915 -2.28,-1.391 -3.956,-1.426l-6.257,0l0,10.055Z" style="fill:#fff;fill-rule:nonzero;"/><rect x="620.703" y="34.642" width="3.252" height="27" style="fill:#fff;fill-rule:nonzero;"/><path d="M640.9,61.642c-0.187,-0.375 -0.34,-1.043 -0.457,-2.004c-1.511,1.571 -3.316,2.356 -5.414,2.356c-1.875,0 -3.413,-0.531 -4.614,-1.591c-1.201,-1.061 -1.802,-2.405 -1.802,-4.034c0,-1.981 0.753,-3.519 2.259,-4.615c1.506,-1.095 3.624,-1.643 6.354,-1.643l3.165,0l0,-1.494c0,-1.137 -0.34,-2.042 -1.02,-2.716c-0.68,-0.674 -1.682,-1.011 -3.006,-1.011c-1.16,0 -2.133,0.293 -2.918,0.879c-0.785,0.586 -1.178,1.295 -1.178,2.127l-3.269,0c0,-0.949 0.337,-1.866 1.011,-2.751c0.674,-0.885 1.588,-1.585 2.742,-2.101c1.154,-0.515 2.423,-0.773 3.806,-0.773c2.191,0 3.908,0.548 5.15,1.644c1.242,1.095 1.887,2.604 1.934,4.526l0,8.754c0,1.746 0.222,3.135 0.667,4.166l0,0.281l-3.41,0Zm-5.396,-2.478c1.019,0 1.986,-0.264 2.9,-0.791c0.914,-0.528 1.576,-1.213 1.987,-2.057l0,-3.902l-2.549,0c-3.985,0 -5.977,1.166 -5.977,3.498c0,1.019 0.34,1.816 1.02,2.39c0.679,0.574 1.552,0.862 2.619,0.862Z" style="fill:#fff;fill-rule:nonzero;"/><path d="M654.699,56.878l4.43,-14.255l3.48,0l-7.646,21.955c-1.184,3.164 -3.065,4.746 -5.643,4.746l-0.615,-0.053l-1.213,-0.229l0,-2.636l0.879,0.07c1.102,0 1.96,-0.223 2.575,-0.668c0.615,-0.445 1.122,-1.26 1.521,-2.443l0.72,-1.934l-6.785,-18.808l3.551,0l4.746,14.255Z" style="fill:#fff;fill-rule:nonzero;"/></g><g id="googleplay-logo"><path d="M36.958,72.607l-0.136,-0.13c-0.534,-0.565 -0.85,-1.442 -0.85,-2.578l0,0.266l0,-40.579c0,-0.002 0,-0.006 0,-0.009l0,0.279c0,-1.23 0.369,-2.158 0.984,-2.712l22.734,22.732l-22.732,22.731Zm-0.986,-43.032c0,-0.101 0.004,-0.2 0.008,-0.295c-0.004,0.095 -0.008,0.194 -0.008,0.295Zm0.01,-0.301c0,0 0,-0.002 0,-0.004c0,0.002 0,0.004 0,0.004Zm0,-0.013l0,-0.002l0,0.002Z" style="fill:url(#_Linear1);"/><path d="M67.266,57.725l0.172,-0.099l8.978,-5.101c0.857,-0.486 1.427,-1.075 1.712,-1.701c-0.285,0.626 -0.855,1.215 -1.712,1.703l-8.978,5.101l-0.172,0.097Zm0.001,-0.27l-7.577,-7.579l7.577,-7.578l9.149,5.198c1.163,0.658 1.814,1.51 1.923,2.38c0,0 0,0.001 0,0.003c-0.109,0.866 -0.76,1.718 -1.923,2.378l-9.149,5.198Z" style="fill:url(#_Linear2);"/><path d="M38.578,73.473c-0.635,0 -1.187,-0.207 -1.62,-0.596l0,-0.002c0.433,0.391 0.987,0.598 1.622,0.598c0.055,0 0.112,-0.002 0.169,-0.005c-0.057,0.003 -0.114,0.005 -0.171,0.005Zm0.002,-0.269c-0.635,0.001 -1.189,-0.206 -1.622,-0.597l22.732,-22.731l7.577,7.579l-26.632,15.134c-0.736,0.418 -1.435,0.615 -2.055,0.615Zm-1.628,-0.333c-0.04,-0.036 -0.08,-0.075 -0.119,-0.115l0.119,0.115Z" style="fill:url(#_Linear3);"/><path d="M59.69,49.876l-22.734,-22.732c0.433,-0.389 0.985,-0.597 1.62,-0.597c0.622,0 1.321,0.199 2.059,0.619l26.632,15.132l-7.577,7.578Zm7.748,-7.749l-26.803,-15.229c-0.738,-0.42 -1.437,-0.618 -2.059,-0.618c-0.002,0 -0.005,0 -0.007,0c0.002,0 0.005,0 0.009,0c0.622,0 1.319,0.198 2.057,0.616l26.803,15.229l0,0.002Z" style="fill:url(#_Linear4);"/><path d="M38.749,73.468c0.576,-0.033 1.214,-0.231 1.886,-0.611l26.631,-15.132l-26.631,15.132c-0.672,0.381 -1.31,0.58 -1.886,0.611Zm-1.791,-0.591l-0.006,-0.006c0.002,0.002 0.004,0.004 0.006,0.006Zm-0.125,-0.121l-0.011,-0.011c0.004,0.004 0.007,0.007 0.011,0.011Z" style="fill-rule:nonzero;"/><path d="M67.266,57.725l0.172,-0.099l-0.172,0.099Z" style="fill:url(#_Linear5);"/><path d="M38.58,73.473c-0.635,0 -1.189,-0.207 -1.622,-0.598l0,0.002c-0.002,-0.002 -0.004,-0.004 -0.006,-0.006l-0.119,-0.115c-0.004,-0.004 -0.007,-0.007 -0.011,-0.011l0.136,-0.138c0.433,0.391 0.987,0.598 1.622,0.597c0.62,0 1.319,-0.197 2.055,-0.615l26.632,-15.134l0.171,0.171l-0.172,0.099l-26.631,15.132c-0.672,0.38 -1.31,0.578 -1.886,0.611c-0.057,0.003 -0.114,0.005 -0.169,0.005Z" style="fill:url(#_Linear6);"/><path d="M36.822,72.745c-0.534,-0.565 -0.85,-1.442 -0.85,-2.578l0,-0.002c0,1.138 0.316,2.015 0.85,2.578l0,0.002Z" style="fill-rule:nonzero;"/><path d="M36.822,72.743c-0.534,-0.563 -0.85,-1.44 -0.85,-2.578l0,-0.266c0,1.136 0.316,2.013 0.85,2.578l0.136,0.13l-0.136,0.136Z" style="fill:url(#_Linear7);"/><path d="M36.822,72.745l0,-0.002l0.136,-0.136l-0.136,0.138Z" style="fill:url(#_Linear8);"/><path d="M78.128,50.824c0.141,-0.308 0.211,-0.627 0.211,-0.945c0,-0.002 0.002,-0.002 0.002,-0.002c0,0.32 -0.072,0.637 -0.213,0.947Z" style="fill-rule:nonzero;"/><path d="M67.438,57.626l-0.171,-0.171l9.149,-5.198c1.163,-0.66 1.814,-1.512 1.923,-2.378c0,0.318 -0.07,0.637 -0.211,0.945c-0.285,0.626 -0.855,1.215 -1.712,1.701l-8.978,5.101Z" style="fill:url(#_Linear9);"/><path d="M78.341,49.876l-0.002,0c0,-0.96 -0.641,-1.92 -1.923,-2.648l-8.978,-5.101l0,-0.002l8.978,5.103c1.282,0.728 1.925,1.688 1.925,2.648Z" style="fill:#404040;fill-rule:nonzero;"/><path d="M78.339,49.876c-0.109,-0.87 -0.76,-1.722 -1.923,-2.38l-9.149,-5.198l0.171,-0.171l8.978,5.101c1.282,0.728 1.923,1.688 1.923,2.648Z" style="fill:url(#_Linear10);"/><path d="M35.972,29.577l0,-0.002l0,0.002Zm0.008,-0.297c0.002,-0.002 0.002,-0.004 0.002,-0.006c0,0.002 0,0.004 -0.002,0.006Zm0.002,-0.01c0,-0.001 0,-0.005 0,-0.009c0,0.004 0,0.008 0,0.009Zm0,-0.011c0.106,-1.884 1.13,-2.972 2.579,-2.979c-0.627,0.003 -1.174,0.209 -1.603,0.596l-0.006,0.005c-0.044,0.041 -0.088,0.083 -0.13,0.127c-0.481,0.51 -0.785,1.273 -0.84,2.251Z" style="fill:#404040;fill-rule:nonzero;"/><path d="M35.972,29.856l0,-0.268c0,-0.004 0,-0.008 0,-0.011l0,-0.002c0,-0.101 0.004,-0.2 0.008,-0.295c0.002,-0.002 0.002,-0.004 0.002,-0.006c0,0 0,-0.002 0,-0.004c0,-0.001 0,-0.005 0,-0.009l0,-0.002c0.055,-0.978 0.359,-1.741 0.84,-2.251l0.134,0.136c-0.615,0.554 -0.984,1.482 -0.984,2.712Zm0.98,-2.975l0.006,-0.005c-0.002,0.002 -0.004,0.004 -0.006,0.005Z" style="fill:url(#_Linear11);"/><path d="M38.561,26.28c0.002,0 0.004,0 0.008,0c-0.004,0 -0.006,0 -0.008,0Z" style="fill:#404040;fill-rule:nonzero;"/><path d="M67.267,42.298l-26.632,-15.132c-0.738,-0.42 -1.437,-0.619 -2.059,-0.619c-0.635,0 -1.187,0.208 -1.62,0.597l-0.134,-0.136c0.042,-0.044 0.086,-0.086 0.13,-0.127c0.002,-0.001 0.004,-0.003 0.006,-0.005c0.429,-0.387 0.976,-0.593 1.603,-0.596l0.015,0c0.622,0 1.321,0.198 2.059,0.618l26.803,15.229l-0.171,0.171Z" style="fill:url(#_Linear12);"/></g></g><defs><linearGradient id="_Linear1" x1="0" y1="0" x2="1" y2="0" gradientUnits="userSpaceOnUse" gradientTransform="matrix(-30.7931,-30.7931,-30.7931,30.7931,57.6745,29.1579)"><stop offset="0" style="stop-color:#00a0ff;stop-opacity:1"/><stop offset="1" style="stop-color:#00e2ff;stop-opacity:1"/></linearGradient><linearGradient id="_Linear2" x1="0" y1="0" x2="1" y2="0" gradientUnits="userSpaceOnUse" gradientTransform="matrix(-44.3974,3.98658e-09,3.98658e-09,44.3974,79.756,49.8763)"><stop offset="0" style="stop-color:#ffdf00;stop-opacity:1"/><stop offset="1" style="stop-color:#ff9c00;stop-opacity:1"/></linearGradient><linearGradient id="_Linear3" x1="0" y1="0" x2="1" y2="0" gradientUnits="userSpaceOnUse" gradientTransform="matrix(-41.7577,-41.7577,-41.7577,41.7577,63.2289,54.0867)"><stop offset="0" style="stop-color:#ff3a44;stop-opacity:1"/><stop offset="1" style="stop-color:#c31162;stop-opacity:1"/></linearGradient><linearGradient id="_Linear4" x1="0" y1="0" x2="1" y2="0" gradientUnits="userSpaceOnUse" gradientTransform="matrix(18.6465,-18.6465,-18.6465,-18.6465,31.0648,13.5004)"><stop offset="0" style="stop-color:#31a070;stop-opacity:1"/><stop offset="1" style="stop-color:#00ef75;stop-opacity:1"/></linearGradient><linearGradient id="_Linear5" x1="0" y1="0" x2="1" y2="0" gradientUnits="userSpaceOnUse" gradientTransform="matrix(-44.3974,3.98658e-09,3.98658e-09,44.3974,79.756,49.8763)"><stop offset="0" style="stop-color:#ccb300;stop-opacity:1"/><stop offset="1" style="stop-color:#cc7c00;stop-opacity:1"/></linearGradient><linearGradient id="_Linear6" x1="0" y1="0" x2="1" y2="0" gradientUnits="userSpaceOnUse" gradientTransform="matrix(-41.7577,-41.7577,-41.7577,41.7577,63.2289,54.0867)"><stop offset="0" style="stop-color:#cc2d36;stop-opacity:1"/><stop offset="1" style="stop-color:#9c0e4d;stop-opacity:1"/></linearGradient><linearGradient id="_Linear7" x1="0" y1="0" x2="1" y2="0" gradientUnits="userSpaceOnUse" gradientTransform="matrix(-30.7931,-30.7931,-30.7931,30.7931,57.6745,29.1579)"><stop offset="0" style="stop-color:#008cdf;stop-opacity:1"/><stop offset="1" style="stop-color:#00c6df;stop-opacity:1"/></linearGradient><linearGradient id="_Linear8" x1="0" y1="0" x2="1" y2="0" gradientUnits="userSpaceOnUse" gradientTransform="matrix(-41.7577,-41.7577,-41.7577,41.7577,63.2289,54.0867)"><stop offset="0" style="stop-color:#df333b;stop-opacity:1"/><stop offset="1" style="stop-color:#aa0e56;stop-opacity:1"/></linearGradient><linearGradient id="_Linear9" x1="0" y1="0" x2="1" y2="0" gradientUnits="userSpaceOnUse" gradientTransform="matrix(-44.3974,3.98658e-09,3.98658e-09,44.3974,79.756,49.8763)"><stop offset="0" style="stop-color:#dfc400;stop-opacity:1"/><stop offset="1" style="stop-color:#df8900;stop-opacity:1"/></linearGradient><linearGradient id="_Linear10" x1="0" y1="0" x2="1" y2="0" gradientUnits="userSpaceOnUse" gradientTransform="matrix(-44.3974,3.98658e-09,3.98658e-09,44.3974,79.756,49.8763)"><stop offset="0" style="stop-color:#ffe83f;stop-opacity:1"/><stop offset="1" style="stop-color:#ffb53f;stop-opacity:1"/></linearGradient><linearGradient id="_Linear11" x1="0" y1="0" x2="1" y2="0" gradientUnits="userSpaceOnUse" gradientTransform="matrix(-30.7931,-30.7931,-30.7931,30.7931,57.6745,29.1579)"><stop offset="0" style="stop-color:#3fb8ff;stop-opacity:1"/><stop offset="1" style="stop-color:#3fe9ff;stop-opacity:1"/></linearGradient><linearGradient id="_Linear12" x1="0" y1="0" x2="1" y2="0" gradientUnits="userSpaceOnUse" gradientTransform="matrix(18.6465,-18.6465,-18.6465,-18.6465,31.0648,13.5004)"><stop offset="0" style="stop-color:#64b895;stop-opacity:1"/><stop offset="1" style="stop-color:#3ff497;stop-opacity:1"/></linearGradient></defs></svg>