<?xml version="1.0" encoding="UTF-8" standalone="no"?><!DOCTYPE svg PUBLIC "-//W3C//DTD SVG 1.1//EN" "http://www.w3.org/Graphics/SVG/1.1/DTD/svg11.dtd"><svg width="100%" height="100%" viewBox="0 0 1777 625" version="1.1" xmlns="http://www.w3.org/2000/svg" xmlns:xlink="http://www.w3.org/1999/xlink" xml:space="preserve" xmlns:serif="http://www.serif.com/" style="fill-rule:evenodd;clip-rule:evenodd;stroke-linejoin:round;stroke-miterlimit:1.41421;"><rect id="gh-readme-header" x="0.253" y="0" width="1776" height="625" style="fill:none;"/><g id="camerakit-logo"><g><path d="M845.587,332.344c-0.521,5.573 -1.823,10.716 -3.906,15.429c-2.083,4.714 -4.974,8.79 -8.672,12.227c-3.698,3.438 -8.216,6.12 -13.555,8.047c-5.338,1.927 -11.497,2.891 -18.476,2.891c-6.979,0 -13.294,-1.264 -18.945,-3.79c-5.651,-2.526 -10.469,-6.119 -14.454,-10.781c-3.984,-4.661 -7.044,-10.299 -9.179,-16.914c-2.136,-6.614 -3.203,-14.036 -3.203,-22.265l0,-9.219c0,-8.177 1.093,-15.586 3.281,-22.227c2.187,-6.64 5.312,-12.305 9.375,-16.992c4.062,-4.688 8.971,-8.307 14.726,-10.859c5.756,-2.552 12.201,-3.828 19.336,-3.828c6.771,0 12.761,0.976 17.969,2.929c5.208,1.953 9.623,4.662 13.242,8.125c3.62,3.464 6.459,7.591 8.516,12.383c2.057,4.792 3.372,10.026 3.945,15.703l-19.687,0c-0.417,-3.594 -1.133,-6.823 -2.149,-9.687c-1.015,-2.865 -2.461,-5.3 -4.336,-7.305c-1.875,-2.005 -4.244,-3.529 -7.109,-4.57c-2.865,-1.042 -6.328,-1.563 -10.391,-1.563c-4.479,0 -8.398,0.846 -11.757,2.539c-3.36,1.693 -6.159,4.141 -8.399,7.344c-2.239,3.203 -3.919,7.148 -5.039,11.836c-1.12,4.687 -1.68,10.026 -1.68,16.016l0,9.375c0,5.677 0.495,10.833 1.485,15.468c0.989,4.636 2.526,8.607 4.609,11.914c2.083,3.308 4.766,5.873 8.047,7.696c3.281,1.823 7.214,2.734 11.797,2.734c4.271,0 7.877,-0.495 10.82,-1.484c2.943,-0.99 5.378,-2.448 7.305,-4.375c1.927,-1.927 3.424,-4.297 4.492,-7.11c1.068,-2.812 1.836,-6.041 2.305,-9.687l19.687,0Z" style="fill:#3c425b;fill-rule:nonzero;"/><path d="M911.915,369.375c-0.52,-0.99 -0.95,-2.161 -1.289,-3.516c-0.338,-1.354 -0.638,-2.812 -0.898,-4.375c-1.25,1.302 -2.643,2.526 -4.18,3.672c-1.536,1.146 -3.229,2.149 -5.078,3.008c-1.849,0.859 -3.854,1.537 -6.016,2.031c-2.161,0.495 -4.466,0.743 -6.914,0.743c-4.218,0 -8.099,-0.639 -11.64,-1.915c-3.542,-1.276 -6.576,-3.046 -9.102,-5.312c-2.526,-2.266 -4.505,-4.935 -5.937,-8.008c-1.433,-3.073 -2.149,-6.406 -2.149,-10c0,-4.531 0.86,-8.542 2.578,-12.031c1.719,-3.49 4.219,-6.406 7.5,-8.75c3.282,-2.344 7.305,-4.128 12.071,-5.352c4.765,-1.224 10.195,-1.836 16.289,-1.836l11.953,0l0,-5.546c0,-4.375 -1.224,-7.878 -3.672,-10.508c-2.448,-2.631 -6.172,-3.946 -11.172,-3.946c-2.239,0 -4.271,0.3 -6.094,0.899c-1.823,0.599 -3.372,1.406 -4.648,2.422c-1.276,1.015 -2.266,2.226 -2.969,3.632c-0.703,1.407 -1.055,2.917 -1.055,4.532l-18.984,0c0,-3.334 0.82,-6.55 2.461,-9.649c1.641,-3.099 3.971,-5.859 6.992,-8.281c3.021,-2.422 6.68,-4.362 10.977,-5.82c4.297,-1.459 9.101,-2.188 14.414,-2.188c4.739,0 9.114,0.612 13.125,1.836c4.01,1.224 7.474,3.047 10.39,5.469c2.917,2.422 5.183,5.443 6.797,9.062c1.615,3.62 2.422,7.852 2.422,12.696l0,37.5c0,7.604 1.068,13.672 3.203,18.203l0,1.328l-19.375,0Zm-20.859,-13.672c2.187,0 4.232,-0.286 6.133,-0.859c1.901,-0.573 3.62,-1.328 5.156,-2.266c1.537,-0.937 2.878,-2.018 4.023,-3.242c1.146,-1.224 2.058,-2.461 2.735,-3.711l0,-15.937l-10.235,0c-7.031,0 -12.317,1.223 -15.859,3.671c-3.542,2.448 -5.312,5.912 -5.312,10.391c0,1.719 0.286,3.307 0.859,4.766c0.573,1.458 1.432,2.721 2.578,3.789c1.146,1.067 2.539,1.901 4.18,2.5c1.64,0.599 3.554,0.898 5.742,0.898Z" style="fill:#3c425b;fill-rule:nonzero;"/><path d="M965.822,284.844l0.546,8.828c2.813,-3.281 6.237,-5.833 10.274,-7.656c4.036,-1.823 8.737,-2.735 14.101,-2.735c5.157,0 9.766,1.029 13.829,3.086c4.062,2.057 7.187,5.352 9.375,9.883c2.812,-3.958 6.367,-7.109 10.664,-9.453c4.297,-2.344 9.388,-3.516 15.273,-3.516c4.375,0 8.281,0.586 11.719,1.758c3.437,1.172 6.341,3.021 8.711,5.547c2.37,2.526 4.193,5.768 5.469,9.727c1.276,3.958 1.914,8.723 1.914,14.296l0,54.766l-18.985,0l0,-54.844c0,-3.125 -0.351,-5.69 -1.054,-7.695c-0.704,-2.005 -1.719,-3.607 -3.047,-4.805c-1.328,-1.198 -2.917,-2.031 -4.766,-2.5c-1.849,-0.468 -3.945,-0.703 -6.289,-0.703c-4.323,0 -7.852,1.159 -10.586,3.477c-2.734,2.317 -4.648,5.351 -5.742,9.101c0,0.261 0.013,0.534 0.039,0.821c0.026,0.286 0.039,0.559 0.039,0.82l0,56.328l-18.984,0l0,-54.609c0,-2.969 -0.352,-5.469 -1.055,-7.5c-0.703,-2.032 -1.719,-3.672 -3.047,-4.922c-1.328,-1.25 -2.93,-2.149 -4.805,-2.696c-1.875,-0.546 -3.984,-0.82 -6.328,-0.82c-4.062,0 -7.409,0.833 -10.039,2.5c-2.63,1.667 -4.674,3.932 -6.133,6.797l0,61.25l-18.984,0l0,-84.531l17.891,0Z" style="fill:#3c425b;fill-rule:nonzero;"/><path d="M1124.41,370.938c-6.25,0 -11.875,-1.042 -16.875,-3.125c-5,-2.084 -9.244,-4.948 -12.734,-8.594c-3.49,-3.646 -6.172,-7.969 -8.047,-12.969c-1.875,-5 -2.812,-10.391 -2.812,-16.172l0,-3.125c0,-6.667 0.989,-12.695 2.968,-18.086c1.98,-5.39 4.688,-9.974 8.125,-13.75c3.438,-3.776 7.487,-6.693 12.149,-8.75c4.661,-2.057 9.674,-3.086 15.039,-3.086c6.146,0 11.484,1.029 16.015,3.086c4.532,2.057 8.282,4.935 11.25,8.633c2.969,3.698 5.183,8.099 6.641,13.203c1.458,5.104 2.188,10.703 2.188,16.797l0,8.125l-55.235,0c0.261,3.281 0.951,6.302 2.071,9.063c1.119,2.76 2.643,5.143 4.57,7.148c1.927,2.005 4.206,3.581 6.836,4.727c2.63,1.145 5.612,1.718 8.945,1.718c4.688,0 8.763,-0.937 12.227,-2.812c3.463,-1.875 6.471,-4.453 9.023,-7.735l10.234,9.766c-1.354,2.031 -3.033,3.997 -5.039,5.898c-2.005,1.901 -4.349,3.594 -7.031,5.079c-2.682,1.484 -5.716,2.682 -9.101,3.593c-3.386,0.912 -7.188,1.368 -11.407,1.368Zm-2.265,-72.422c-5.209,0 -9.414,1.823 -12.617,5.468c-3.204,3.646 -5.248,8.724 -6.133,15.235l36.172,0l0,-1.406c-0.157,-2.5 -0.56,-4.909 -1.211,-7.227c-0.651,-2.318 -1.654,-4.375 -3.008,-6.172c-1.354,-1.797 -3.112,-3.229 -5.274,-4.297c-2.161,-1.068 -4.804,-1.601 -7.929,-1.601Z" style="fill:#3c425b;fill-rule:nonzero;"/><path d="M1217.31,302.188c-1.25,-0.209 -2.513,-0.365 -3.789,-0.469c-1.276,-0.104 -2.591,-0.156 -3.945,-0.156c-4.584,0 -8.308,0.885 -11.172,2.656c-2.865,1.771 -5,4.219 -6.407,7.344l0,57.812l-18.984,0l0,-84.531l18.125,0l0.469,9.453c2.135,-3.438 4.779,-6.133 7.93,-8.086c3.151,-1.953 6.862,-2.93 11.132,-2.93c1.094,0 2.331,0.117 3.711,0.352c1.381,0.234 2.383,0.482 3.008,0.742l-0.078,17.813Z" style="fill:#3c425b;fill-rule:nonzero;"/><path d="M1277.46,369.375c-0.521,-0.99 -0.95,-2.161 -1.289,-3.516c-0.338,-1.354 -0.638,-2.812 -0.898,-4.375c-1.25,1.302 -2.643,2.526 -4.18,3.672c-1.536,1.146 -3.229,2.149 -5.078,3.008c-1.849,0.859 -3.854,1.537 -6.016,2.031c-2.161,0.495 -4.466,0.743 -6.914,0.743c-4.219,0 -8.099,-0.639 -11.64,-1.915c-3.542,-1.276 -6.576,-3.046 -9.102,-5.312c-2.526,-2.266 -4.505,-4.935 -5.937,-8.008c-1.433,-3.073 -2.149,-6.406 -2.149,-10c0,-4.531 0.859,-8.542 2.578,-12.031c1.719,-3.49 4.219,-6.406 7.5,-8.75c3.281,-2.344 7.305,-4.128 12.071,-5.352c4.765,-1.224 10.195,-1.836 16.289,-1.836l11.953,0l0,-5.546c0,-4.375 -1.224,-7.878 -3.672,-10.508c-2.448,-2.631 -6.172,-3.946 -11.172,-3.946c-2.24,0 -4.271,0.3 -6.094,0.899c-1.823,0.599 -3.372,1.406 -4.648,2.422c-1.276,1.015 -2.266,2.226 -2.969,3.632c-0.703,1.407 -1.055,2.917 -1.055,4.532l-18.984,0c0,-3.334 0.82,-6.55 2.461,-9.649c1.641,-3.099 3.971,-5.859 6.992,-8.281c3.021,-2.422 6.68,-4.362 10.977,-5.82c4.297,-1.459 9.101,-2.188 14.414,-2.188c4.739,0 9.114,0.612 13.125,1.836c4.01,1.224 7.474,3.047 10.39,5.469c2.917,2.422 5.183,5.443 6.797,9.062c1.615,3.62 2.422,7.852 2.422,12.696l0,37.5c0,7.604 1.068,13.672 3.203,18.203l0,1.328l-19.375,0Zm-20.859,-13.672c2.187,0 4.232,-0.286 6.133,-0.859c1.901,-0.573 3.619,-1.328 5.156,-2.266c1.536,-0.937 2.878,-2.018 4.023,-3.242c1.146,-1.224 2.058,-2.461 2.735,-3.711l0,-15.937l-10.235,0c-7.031,0 -12.317,1.223 -15.859,3.671c-3.542,2.448 -5.313,5.912 -5.313,10.391c0,1.719 0.287,3.307 0.86,4.766c0.573,1.458 1.432,2.721 2.578,3.789c1.146,1.067 2.539,1.901 4.18,2.5c1.64,0.599 3.554,0.898 5.742,0.898Z" style="fill:#3c425b;fill-rule:nonzero;"/><path d="M1345.9,316.484l-13.907,14.454l0,38.437l-15,0l0,-113.75l15,0l0,56.25l12.344,-13.75l38.203,-42.5l18.125,0l-44.765,50.234l48.281,63.516l-17.969,0l-40.312,-52.891Z" style="fill:#3c425b;fill-rule:nonzero;"/><path d="M1430.74,369.375l-14.453,0l0,-84.531l14.453,0l0,84.531Zm-15.625,-106.953c0,-2.344 0.717,-4.323 2.149,-5.938c1.432,-1.614 3.555,-2.422 6.367,-2.422c2.813,0 4.948,0.808 6.406,2.422c1.459,1.615 2.188,3.594 2.188,5.938c0,2.344 -0.729,4.297 -2.188,5.859c-1.458,1.563 -3.593,2.344 -6.406,2.344c-2.812,0 -4.935,-0.781 -6.367,-2.344c-1.432,-1.562 -2.149,-3.515 -2.149,-5.859Z" style="fill:#3c425b;fill-rule:nonzero;"/><path d="M1473.48,264.375l0,20.469l15.781,0l0,11.172l-15.781,0l0,52.421c0,2.188 0.26,3.946 0.781,5.274c0.521,1.328 1.211,2.357 2.07,3.086c0.86,0.729 1.849,1.211 2.969,1.445c1.12,0.235 2.279,0.352 3.477,0.352c1.198,0 2.461,-0.117 3.789,-0.352c1.328,-0.234 2.357,-0.43 3.086,-0.586l0,11.719c-1.146,0.313 -2.63,0.651 -4.453,1.016c-1.823,0.364 -4.037,0.546 -6.641,0.546c-2.656,0 -5.169,-0.377 -7.539,-1.132c-2.37,-0.756 -4.44,-2.019 -6.211,-3.789c-1.771,-1.771 -3.177,-4.102 -4.219,-6.993c-1.041,-2.89 -1.562,-6.445 -1.562,-10.664l0,-52.343l-15.391,0l0,-11.172l15.391,0l0,-20.469l14.453,0Z" style="fill:#3c425b;fill-rule:nonzero;"/></g><g id="logo-mark"><path id="left-bracket" d="M306.863,232.5c0,-22.076 17.924,-40 40,-40l20,0l0,20l-20,0c-11.038,0 -20,8.962 -20,20l0,160c0,11.038 8.962,20 20,20l20,0l0,20l-20,0c-22.076,0 -40,-17.923 -40,-40l0,-55c0,-11.038 -8.961,-20 -20,-20l-0.007,0l0,-10l0.007,0c11.039,0 20,-8.962 20,-20l0,-55Zm20,60.129c-0.07,10.975 -8.998,19.865 -19.988,19.871l0,0c11.033,0.006 19.988,8.966 19.988,20l0,-40l0,0.129Z" style="fill:#ef8a7c;"/><path id="right-bracket" d="M626.856,232.5c0,-22.076 -17.924,-40 -40,-40l-20,0l0,20l20,0c11.038,0 20,8.962 20,20l0,160c0,11.038 -8.962,20 -20,20l-20,0l0,20l20,0c22.076,0 40,-17.923 40,-40l0,-55c0,-11.038 8.961,-20 20,-20l0.007,0l0,-10l-0.007,0c-11.039,0 -20,-8.962 -20,-20l0,-55Zm-20,60.129c0.07,10.975 8.998,19.865 19.988,19.871l0,0c-11.033,0.006 -19.988,8.966 -19.988,20l0,-40l0,0.129Z" style="fill:#5960e9;"/><path id="aperture" d="M522.91,369.576c-14.438,14.181 -34.227,22.932 -56.043,22.932l-0.008,0l34.645,-60.008l21.406,37.076Zm-77.467,20.026c-20.378,-5.659 -37.495,-19.188 -47.865,-37.102l69.285,0l-21.42,37.102Zm98.903,-97.102c1.648,6.394 2.525,13.098 2.525,20.004c0,14.569 -3.903,28.235 -10.72,40.006l-34.647,-60.01l42.842,0Zm-146.764,-19.999l34.64,59.999l-42.835,0c-1.647,-6.392 -2.524,-13.093 -2.524,-19.996c0,-14.569 3.903,-28.233 10.719,-40.003Zm34.64,19.999l-21.4,-37.066c14.438,-14.181 34.226,-22.933 56.041,-22.934l-34.641,60Zm56.059,-57.097c20.38,5.656 37.499,19.184 47.871,37.097l-69.289,0l21.418,-37.097Z" style="fill:url(#_Linear1);"/></g></g><defs><linearGradient id="_Linear1" x1="0" y1="0" x2="1" y2="0" gradientUnits="userSpaceOnUse" gradientTransform="matrix(123.029,-123.029,123.029,123.029,413.746,365.625)"><stop offset="0" style="stop-color:#ef8a7c;stop-opacity:1"/><stop offset="1" style="stop-color:#5960e9;stop-opacity:1"/></linearGradient></defs></svg>