<?xml version="1.0" encoding="UTF-8" standalone="no"?><!DOCTYPE svg PUBLIC "-//W3C//DTD SVG 1.1//EN" "http://www.w3.org/Graphics/SVG/1.1/DTD/svg11.dtd"><svg width="100%" height="100%" viewBox="0 0 1001 101" version="1.1" xmlns="http://www.w3.org/2000/svg" xmlns:xlink="http://www.w3.org/1999/xlink" xml:space="preserve" xmlns:serif="http://www.serif.com/" style="fill-rule:evenodd;clip-rule:evenodd;stroke-linejoin:round;stroke-miterlimit:1.41421;"><rect id="gh-readme-app" x="0.125" y="0.367" width="1000" height="100" style="fill:none;"/><path d="M997.125,10.349c0,-4.473 -3.632,-8.105 -8.105,-8.105l-977.417,0c-4.474,0 -8.105,3.632 -8.105,8.105l0,79.789c0,4.474 3.631,8.106 8.105,8.106l977.417,0c4.473,0 8.105,-3.632 8.105,-8.106l0,-79.789Z"/><g id="Content"><g><path d="M239.025,49.373c0,7.812 5.436,12.96 12.564,12.96c8.28,0 12.42,-6.264 12.132,-13.572l-11.736,0l0,2.556l8.964,0c-0.468,5.472 -4.176,8.208 -9.36,8.208c-5.868,0 -9.54,-4.284 -9.54,-10.152c0,-5.724 3.672,-10.152 9.54,-10.152c3.78,0 6.912,1.152 8.244,4.788l2.952,0c-1.44,-5.256 -6.264,-7.524 -11.196,-7.524c-7.02,0 -12.564,5.076 -12.564,12.888Z" style="fill:#fff;fill-rule:nonzero;"/><path d="M275.709,44.333c-4.752,0 -8.712,3.06 -8.892,8.532c-0.18,5.904 3.888,9.468 9.648,9.468c2.124,0 4.32,-0.504 6.372,-1.476l-0.432,-2.124c-2.016,0.828 -3.888,1.26 -5.868,1.26c-3.924,0 -7.092,-2.376 -6.912,-6.372l13.716,0c0.972,-5.724 -1.728,-9.252 -7.632,-9.288Zm0,2.232c3.096,0 5.508,1.62 5.328,4.896l-11.304,0c0.468,-3.132 2.808,-4.896 5.976,-4.896Z" style="fill:#fff;fill-rule:nonzero;"/><path d="M292.485,39.329l-2.34,0l-0.288,5.4l-3.888,0l0,1.872l3.708,0.18l0,8.568c0,4.716 2.124,6.696 5.544,6.696c1.332,0 2.844,-0.252 4.5,-0.792l-0.324,-2.196c-1.26,0.468 -2.376,0.72 -3.348,0.72c-2.232,0 -3.564,-1.404 -3.564,-4.5l0,-8.496l6.372,0l0,-2.052l-6.372,0l0,-5.4Z" style="fill:#fff;fill-rule:nonzero;"/><path d="M316.173,39.329l-2.34,0l-0.288,5.4l-3.888,0l0,1.872l3.708,0.18l0,8.568c0,4.716 2.124,6.696 5.544,6.696c1.332,0 2.844,-0.252 4.5,-0.792l-0.324,-2.196c-1.26,0.468 -2.376,0.72 -3.348,0.72c-2.232,0 -3.564,-1.404 -3.564,-4.5l0,-8.496l6.372,0l0,-2.052l-6.372,0l0,-5.4Z" style="fill:#fff;fill-rule:nonzero;"/><path d="M342.489,62.009l0,-10.116c0,-4.5 -2.232,-7.524 -6.984,-7.56c-2.7,0 -4.392,0.792 -5.94,2.7l0,-11.34l-2.844,0l0,26.316l2.844,0l0,-10.008c0,-3.204 2.088,-5.364 5.22,-5.328c3.024,0 4.86,1.908 4.824,5.22l0,10.116l2.88,0Z" style="fill:#fff;fill-rule:nonzero;"/><path d="M355.521,44.333c-4.752,0 -8.712,3.06 -8.892,8.532c-0.18,5.904 3.888,9.468 9.648,9.468c2.124,0 4.32,-0.504 6.372,-1.476l-0.432,-2.124c-2.016,0.828 -3.888,1.26 -5.868,1.26c-3.924,0 -7.092,-2.376 -6.912,-6.372l13.716,0c0.972,-5.724 -1.728,-9.252 -7.632,-9.288Zm0,2.232c3.096,0 5.508,1.62 5.328,4.896l-11.304,0c0.468,-3.132 2.808,-4.896 5.976,-4.896Z" style="fill:#fff;fill-rule:nonzero;"/><path d="M375.717,57.113c0.288,3.96 3.924,5.22 7.704,5.22c4.032,-0.108 7.632,-1.728 7.632,-5.292c0.108,-4.104 -3.708,-4.608 -7.344,-5.076c-3.204,-0.468 -4.824,-0.9 -4.86,-2.592c-0.108,-2.016 2.34,-2.808 4.536,-2.808c2.268,0 4.5,0.864 4.5,2.736l2.7,0c0.108,-3.348 -3.6,-4.968 -7.2,-4.968c-3.6,0 -7.308,1.512 -7.2,5.112c0.108,3.6 3.852,4.32 7.272,4.716c3.204,0.468 4.86,0.9 4.86,2.88c-0.108,2.124 -2.484,3.024 -4.896,3.024c-2.34,0 -4.788,-0.756 -4.968,-2.952l-2.736,0Z" style="fill:#fff;fill-rule:nonzero;"/><path d="M407.001,58.877c0,3.168 1.368,3.708 4.248,3.24l-0.036,-1.836c-2.124,0.288 -2.016,-0.828 -2.016,-2.736l0,-7.236c0.108,-4.536 -3.672,-5.976 -7.596,-5.976c-2.304,0 -4.5,0.432 -6.192,1.296l0.468,2.232c1.476,-0.864 3.312,-1.26 5.292,-1.26c2.376,0 5.472,0.72 5.472,3.636l0,2.52c-1.728,-0.972 -3.996,-1.26 -5.976,-1.26c-3.6,0 -6.624,1.908 -6.624,5.76c0,3.528 2.916,5.076 6.12,5.076c2.628,0 5.58,-1.044 6.84,-3.456Zm-0.396,-2.844c-0.72,2.808 -3.672,3.888 -5.94,3.888c-1.944,0 -3.852,-0.612 -3.852,-2.844c0,-2.484 2.268,-3.384 4.5,-3.384c2.016,0 4.212,0.576 5.292,1.224l0,1.116Z" style="fill:#fff;fill-rule:nonzero;"/><path d="M441.885,62.009l0,-10.332c0,-3.996 -1.368,-7.344 -6.012,-7.344c-2.88,0 -5.256,0.972 -6.624,3.708c-0.684,-2.448 -2.484,-3.708 -5.364,-3.708c-2.484,0 -4.608,0.756 -5.868,3.06c0,-3.42 -2.16,-3.204 -4.608,-2.808l0.036,2.052c1.836,-0.18 2.016,0.504 2.016,2.808l0,12.564l2.808,0l0,-10.08c0,-3.168 1.836,-5.256 4.86,-5.256c3.024,0 4.032,2.232 4.032,5.148l0,10.188l2.808,0l0,-10.116c0,-3.096 2.232,-5.22 5.112,-5.22c2.916,0 3.924,2.232 3.924,5.004l0,10.332l2.88,0Z" style="fill:#fff;fill-rule:nonzero;"/><path d="M450.093,47.537c0.108,-2.736 -1.764,-3.384 -4.5,-2.916l0.036,2.088c2.304,-0.288 2.052,1.512 2.052,3.744l0,20.484l2.808,0l0,-10.116c1.764,1.188 3.636,1.512 5.436,1.512c4.464,0 8.352,-3.564 8.352,-9.108c0,-4.968 -2.772,-8.892 -7.848,-8.892c-2.34,0 -4.86,0.792 -6.336,3.204Zm0.324,4.968c0.108,-2.988 2.16,-5.616 5.472,-5.616c3.888,0 5.508,2.88 5.508,6.336c0,4.212 -2.772,6.624 -5.976,6.624c-1.656,0 -3.42,-0.396 -5.004,-1.656l0,-5.688Z" style="fill:#fff;fill-rule:nonzero;"/><path d="M468.489,35.621l0,19.836c0,5.364 2.016,7.2 7.308,6.336l-0.108,-2.052c-3.636,0.468 -4.356,-0.36 -4.356,-4.284l0,-19.836l-2.844,0Z" style="fill:#fff;fill-rule:nonzero;"/><path d="M486.345,44.333c-4.752,0 -8.712,3.06 -8.892,8.532c-0.18,5.904 3.888,9.468 9.648,9.468c2.124,0 4.32,-0.504 6.372,-1.476l-0.432,-2.124c-2.016,0.828 -3.888,1.26 -5.868,1.26c-3.924,0 -7.092,-2.376 -6.912,-6.372l13.716,0c0.972,-5.724 -1.728,-9.252 -7.632,-9.288Zm0,2.232c3.096,0 5.508,1.62 5.328,4.896l-11.304,0c0.468,-3.132 2.808,-4.896 5.976,-4.896Z" style="fill:#fff;fill-rule:nonzero;"/><path d="M519.501,58.877c0,3.168 1.368,3.708 4.248,3.24l-0.036,-1.836c-2.124,0.288 -2.016,-0.828 -2.016,-2.736l0,-7.236c0.108,-4.536 -3.672,-5.976 -7.596,-5.976c-2.304,0 -4.5,0.432 -6.192,1.296l0.468,2.232c1.476,-0.864 3.312,-1.26 5.292,-1.26c2.376,0 5.472,0.72 5.472,3.636l0,2.52c-1.728,-0.972 -3.996,-1.26 -5.976,-1.26c-3.6,0 -6.624,1.908 -6.624,5.76c0,3.528 2.916,5.076 6.12,5.076c2.628,0 5.58,-1.044 6.84,-3.456Zm-0.396,-2.844c-0.72,2.808 -3.672,3.888 -5.94,3.888c-1.944,0 -3.852,-0.612 -3.852,-2.844c0,-2.484 2.268,-3.384 4.5,-3.384c2.016,0 4.212,0.576 5.292,1.224l0,1.116Z" style="fill:#fff;fill-rule:nonzero;"/><path d="M530.337,47.537c0.108,-2.736 -1.764,-3.384 -4.5,-2.916l0.036,2.088c2.304,-0.288 2.052,1.512 2.052,3.744l0,20.484l2.808,0l0,-10.116c1.764,1.188 3.636,1.512 5.436,1.512c4.464,0 8.352,-3.564 8.352,-9.108c0,-4.968 -2.772,-8.892 -7.848,-8.892c-2.34,0 -4.86,0.792 -6.336,3.204Zm0.324,4.968c0.108,-2.988 2.16,-5.616 5.472,-5.616c3.888,0 5.508,2.88 5.508,6.336c0,4.212 -2.772,6.624 -5.976,6.624c-1.656,0 -3.42,-0.396 -5.004,-1.656l0,-5.688Z" style="fill:#fff;fill-rule:nonzero;"/><path d="M551.829,47.537c0.108,-2.736 -1.764,-3.384 -4.5,-2.916l0.036,2.088c2.304,-0.288 2.052,1.512 2.052,3.744l0,20.484l2.808,0l0,-10.116c1.764,1.188 3.636,1.512 5.436,1.512c4.464,0 8.352,-3.564 8.352,-9.108c0,-4.968 -2.772,-8.892 -7.848,-8.892c-2.34,0 -4.86,0.792 -6.336,3.204Zm0.324,4.968c0.108,-2.988 2.16,-5.616 5.472,-5.616c3.888,0 5.508,2.88 5.508,6.336c0,4.212 -2.772,6.624 -5.976,6.624c-1.656,0 -3.42,-0.396 -5.004,-1.656l0,-5.688Z" style="fill:#fff;fill-rule:nonzero;"/><path d="M596.901,53.297c0,-6.012 -4.536,-8.964 -9.108,-8.964c-4.572,0 -9.18,2.916 -9.18,8.964c0,6.012 4.536,9 9.072,9.036c4.608,0.036 9.216,-3.024 9.216,-9.036Zm-15.444,0c0,-4.392 3.132,-6.552 6.3,-6.552c3.168,0 6.336,2.16 6.336,6.552c0,4.428 -3.132,6.696 -6.3,6.696c-3.168,0 -6.336,-2.268 -6.336,-6.696Z" style="fill:#fff;fill-rule:nonzero;"/><path d="M617.529,62.009l0,-10.26c0,-4.248 -2.376,-7.416 -6.948,-7.416c-2.448,0 -4.572,0.576 -6.12,2.916c0,-3.348 -2.664,-2.916 -4.68,-2.628l0.036,2.232c1.836,-0.18 2.016,0.432 2.016,2.772l0,12.384l2.808,0l0,-10.404c0,-2.916 2.232,-4.932 5.184,-4.932c2.844,0 4.86,1.944 4.86,5.076l0,10.26l2.844,0Z" style="fill:#fff;fill-rule:nonzero;"/><path d="M631.173,49.373c0,7.812 5.436,12.96 12.564,12.96c8.28,0 12.42,-6.264 12.132,-13.572l-11.736,0l0,2.556l8.964,0c-0.468,5.472 -4.176,8.208 -9.36,8.208c-5.868,0 -9.54,-4.284 -9.54,-10.152c0,-5.724 3.672,-10.152 9.54,-10.152c3.78,0 6.912,1.152 8.244,4.788l2.952,0c-1.44,-5.256 -6.264,-7.524 -11.196,-7.524c-7.02,0 -12.564,5.076 -12.564,12.888Z" style="fill:#fff;fill-rule:nonzero;"/><path d="M677.253,53.297c0,-6.012 -4.536,-8.964 -9.108,-8.964c-4.572,0 -9.18,2.916 -9.18,8.964c0,6.012 4.536,9 9.072,9.036c4.608,0.036 9.216,-3.024 9.216,-9.036Zm-15.444,0c0,-4.392 3.132,-6.552 6.3,-6.552c3.168,0 6.336,2.16 6.336,6.552c0,4.428 -3.132,6.696 -6.3,6.696c-3.168,0 -6.336,-2.268 -6.336,-6.696Z" style="fill:#fff;fill-rule:nonzero;"/><path d="M698.781,53.297c0,-6.012 -4.536,-8.964 -9.108,-8.964c-4.572,0 -9.18,2.916 -9.18,8.964c0,6.012 4.536,9 9.072,9.036c4.608,0.036 9.216,-3.024 9.216,-9.036Zm-15.444,0c0,-4.392 3.132,-6.552 6.3,-6.552c3.168,0 6.336,2.16 6.336,6.552c0,4.428 -3.132,6.696 -6.3,6.696c-3.168,0 -6.336,-2.268 -6.336,-6.696Z" style="fill:#fff;fill-rule:nonzero;"/><path d="M715.773,63.449c0,4.536 -2.484,5.148 -5.472,5.184c-2.16,0.036 -4.572,-0.792 -6.552,-1.872l-0.468,2.304c2.232,1.26 4.752,1.944 7.056,1.944c4.428,0 8.172,-1.728 8.172,-7.776l0,-17.244c-2.16,-0.972 -4.464,-1.584 -6.912,-1.584c-5.364,0 -9.54,2.916 -9.54,9c0,5.904 3.672,9.252 8.172,9.108c1.764,-0.036 3.672,-0.612 5.544,-1.8l0,2.736Zm-0.036,-5.184c-1.656,1.224 -3.42,1.836 -5.04,1.836c-3.204,0.036 -5.832,-2.268 -5.832,-6.732c0,-4.428 3.06,-6.588 6.66,-6.588c1.404,0 2.808,0.288 4.212,0.828l0,10.656Z" style="fill:#fff;fill-rule:nonzero;"/><path d="M723.693,35.621l0,19.836c0,5.364 2.016,7.2 7.308,6.336l-0.108,-2.052c-3.636,0.468 -4.356,-0.36 -4.356,-4.284l0,-19.836l-2.844,0Z" style="fill:#fff;fill-rule:nonzero;"/><path d="M741.549,44.333c-4.752,0 -8.712,3.06 -8.892,8.532c-0.18,5.904 3.888,9.468 9.648,9.468c2.124,0 4.32,-0.504 6.372,-1.476l-0.432,-2.124c-2.016,0.828 -3.888,1.26 -5.868,1.26c-3.924,0 -7.092,-2.376 -6.912,-6.372l13.716,0c0.972,-5.724 -1.728,-9.252 -7.632,-9.288Zm0,2.232c3.096,0 5.508,1.62 5.328,4.896l-11.304,0c0.468,-3.132 2.808,-4.896 5.976,-4.896Z" style="fill:#fff;fill-rule:nonzero;"/><path d="M766.641,61.973l0,-7.992l7.092,0c5.328,0 8.82,-3.78 8.82,-8.568c0,-4.824 -3.42,-8.64 -8.82,-8.64c-3.312,-0.036 -6.768,0 -10.08,0l0,25.2l2.988,0Zm-0.036,-10.692l0,-11.844c2.412,0 4.824,-0.036 7.128,0c3.456,0 5.904,2.484 5.904,5.904c0,3.492 -2.556,5.94 -5.904,5.94l-7.128,0Z" style="fill:#fff;fill-rule:nonzero;"/><path d="M786.261,35.621l0,19.836c0,5.364 2.016,7.2 7.308,6.336l-0.108,-2.052c-3.636,0.468 -4.356,-0.36 -4.356,-4.284l0,-19.836l-2.844,0Z" style="fill:#fff;fill-rule:nonzero;"/><path d="M808.005,58.877c0,3.168 1.368,3.708 4.248,3.24l-0.036,-1.836c-2.124,0.288 -2.016,-0.828 -2.016,-2.736l0,-7.236c0.108,-4.536 -3.672,-5.976 -7.596,-5.976c-2.304,0 -4.5,0.432 -6.192,1.296l0.468,2.232c1.476,-0.864 3.312,-1.26 5.292,-1.26c2.376,0 5.472,0.72 5.472,3.636l0,2.52c-1.728,-0.972 -3.996,-1.26 -5.976,-1.26c-3.6,0 -6.624,1.908 -6.624,5.76c0,3.528 2.916,5.076 6.12,5.076c2.628,0 5.58,-1.044 6.84,-3.456Zm-0.396,-2.844c-0.72,2.808 -3.672,3.888 -5.94,3.888c-1.944,0 -3.852,-0.612 -3.852,-2.844c0,-2.484 2.268,-3.384 4.5,-3.384c2.016,0 4.212,0.576 5.292,1.224l0,1.116Z" style="fill:#fff;fill-rule:nonzero;"/><path d="M831.153,44.981l0,-0.288l-2.844,0l-3.168,7.776l-2.628,6.804l-0.036,0l-2.844,-6.876l-3.456,-7.704l-2.988,0l0,0.288l7.956,17.172l-1.008,2.448c-1.152,2.88 -2.52,5.04 -5.832,3.492l-0.396,2.088c5.688,2.484 7.668,-2.304 9.612,-6.948l7.632,-18.252Z" style="fill:#fff;fill-rule:nonzero;"/></g><g><path d="M170.083,72.974l-0.136,-0.13c-0.534,-0.565 -0.849,-1.442 -0.849,-2.578l0,0.266l0,-40.579c0,-0.002 0,-0.005 0,-0.009l0,0.279c0,-1.229 0.368,-2.158 0.983,-2.712l22.734,22.732l-22.732,22.731Zm-0.985,-43.032c0,-0.101 0.003,-0.2 0.007,-0.295c-0.004,0.095 -0.007,0.194 -0.007,0.295Zm0.009,-0.301c0,0 0,-0.002 0,-0.003c0,0.001 0,0.003 0,0.003Zm0,-0.013l0,-0.001l0,0.001Z" style="fill:url(#_Linear1);"/><path d="M200.391,58.092l0.172,-0.099l8.978,-5.101c0.857,-0.486 1.427,-1.075 1.712,-1.701c-0.285,0.626 -0.855,1.215 -1.712,1.703l-8.978,5.101l-0.172,0.097Zm0.001,-0.27l-7.577,-7.579l7.577,-7.578l9.149,5.198c1.163,0.659 1.815,1.51 1.923,2.38c0,0 0,0.002 0,0.003c-0.108,0.866 -0.76,1.718 -1.923,2.378l-9.149,5.198Z" style="fill:url(#_Linear2);"/><path d="M171.703,73.84c-0.635,0 -1.187,-0.207 -1.62,-0.596l0,-0.002c0.433,0.391 0.987,0.598 1.622,0.598c0.055,0 0.112,-0.001 0.169,-0.005c-0.057,0.004 -0.114,0.005 -0.171,0.005Zm0.002,-0.269c-0.635,0.002 -1.189,-0.206 -1.622,-0.597l22.732,-22.731l7.577,7.579l-26.632,15.134c-0.736,0.418 -1.435,0.615 -2.055,0.615Zm-1.628,-0.332c-0.04,-0.037 -0.08,-0.076 -0.119,-0.116l0.119,0.116Z" style="fill:url(#_Linear3);"/><path d="M192.815,50.243l-22.734,-22.732c0.433,-0.389 0.985,-0.596 1.62,-0.596c0.622,0 1.321,0.198 2.059,0.618l26.632,15.132l-7.577,7.578Zm7.748,-7.749l-26.803,-15.229c-0.738,-0.42 -1.437,-0.618 -2.059,-0.618c-0.002,0 -0.005,0 -0.007,0c0.002,0 0.005,0 0.009,0c0.622,0 1.319,0.198 2.057,0.616l26.803,15.229l0,0.002Z" style="fill:url(#_Linear4);"/><path d="M171.874,73.835c0.576,-0.033 1.214,-0.231 1.886,-0.611l26.631,-15.132l-26.631,15.132c-0.672,0.382 -1.31,0.58 -1.886,0.611Zm-1.791,-0.591l-0.006,-0.005c0.002,0.001 0.004,0.003 0.006,0.005Zm-0.125,-0.121l-0.011,-0.011c0.004,0.004 0.007,0.007 0.011,0.011Z" style="fill-rule:nonzero;"/><path d="M200.391,58.092l0.172,-0.099l-0.172,0.099Z" style="fill:url(#_Linear5);"/><path d="M171.705,73.84c-0.635,0 -1.189,-0.207 -1.622,-0.598l0,0.002c-0.002,-0.002 -0.004,-0.004 -0.006,-0.005l-0.119,-0.116c-0.004,-0.004 -0.007,-0.007 -0.011,-0.011l0.136,-0.138c0.433,0.391 0.987,0.599 1.622,0.597c0.62,0 1.319,-0.197 2.055,-0.615l26.632,-15.134l0.171,0.171l-0.172,0.099l-26.631,15.132c-0.672,0.38 -1.31,0.578 -1.886,0.611c-0.057,0.004 -0.114,0.005 -0.169,0.005Z" style="fill:url(#_Linear6);"/><path d="M169.947,73.112c-0.534,-0.565 -0.849,-1.442 -0.849,-2.578l0,-0.002c0,1.138 0.315,2.015 0.849,2.578l0,0.002Z" style="fill-rule:nonzero;"/><path d="M169.947,73.11c-0.534,-0.563 -0.849,-1.44 -0.849,-2.578l0,-0.266c0,1.136 0.315,2.013 0.849,2.578l0.136,0.13l-0.136,0.136Z" style="fill:url(#_Linear7);"/><path d="M169.947,73.112l0,-0.002l0.136,-0.136l-0.136,0.138Z" style="fill:url(#_Linear8);"/><path d="M211.253,51.191c0.141,-0.308 0.211,-0.627 0.211,-0.945c0,-0.001 0.002,-0.001 0.002,-0.001c0,0.319 -0.072,0.636 -0.213,0.946Z" style="fill-rule:nonzero;"/><path d="M200.563,57.993l-0.171,-0.171l9.149,-5.198c1.163,-0.66 1.815,-1.512 1.923,-2.378c0,0.318 -0.07,0.637 -0.211,0.945c-0.285,0.626 -0.855,1.215 -1.712,1.701l-8.978,5.101Z" style="fill:url(#_Linear9);"/><path d="M211.466,50.243l-0.002,0c0,-0.96 -0.641,-1.92 -1.923,-2.648l-8.978,-5.101l0,-0.002l8.978,5.103c1.282,0.728 1.925,1.688 1.925,2.648Z" style="fill:#404040;fill-rule:nonzero;"/><path d="M211.464,50.243c-0.108,-0.87 -0.76,-1.721 -1.923,-2.38l-9.149,-5.198l0.171,-0.171l8.978,5.101c1.282,0.728 1.923,1.688 1.923,2.648Z" style="fill:url(#_Linear10);"/><path d="M169.098,29.944l0,-0.002l0,0.002Zm0.007,-0.297c0.002,-0.002 0.002,-0.004 0.002,-0.006c0,0.002 0,0.004 -0.002,0.006Zm0.002,-0.009c0,-0.002 0,-0.006 0,-0.01c0,0.004 0,0.008 0,0.01Zm0,-0.011c0.106,-1.885 1.13,-2.973 2.58,-2.98c-0.628,0.003 -1.175,0.209 -1.604,0.596l-0.006,0.006c-0.044,0.04 -0.088,0.082 -0.13,0.126c-0.481,0.51 -0.785,1.274 -0.84,2.252Z" style="fill:#404040;fill-rule:nonzero;"/><path d="M169.098,30.223l0,-0.268c0,-0.004 0,-0.007 0,-0.011l0,-0.002c0,-0.101 0.003,-0.2 0.007,-0.295c0.002,-0.002 0.002,-0.004 0.002,-0.006c0,0 0,-0.002 0,-0.003c0,-0.002 0,-0.006 0,-0.01l0,-0.001c0.055,-0.978 0.359,-1.742 0.84,-2.252l0.134,0.136c-0.615,0.554 -0.983,1.483 -0.983,2.712Zm0.979,-2.974l0.006,-0.006c-0.002,0.002 -0.004,0.004 -0.006,0.006Z" style="fill:url(#_Linear11);"/><path d="M171.687,26.647c0.001,0 0.003,0 0.007,0c-0.004,0 -0.006,0 -0.007,0Z" style="fill:#404040;fill-rule:nonzero;"/><path d="M200.392,42.665l-26.632,-15.132c-0.738,-0.42 -1.437,-0.618 -2.059,-0.618c-0.635,0 -1.187,0.207 -1.62,0.596l-0.134,-0.136c0.042,-0.044 0.086,-0.086 0.13,-0.126c0.002,-0.002 0.004,-0.004 0.006,-0.006c0.429,-0.387 0.976,-0.593 1.604,-0.596l0.014,0c0.622,0 1.321,0.198 2.059,0.618l26.803,15.229l-0.171,0.171Z" style="fill:url(#_Linear12);"/></g></g><defs><linearGradient id="_Linear1" x1="0" y1="0" x2="1" y2="0" gradientUnits="userSpaceOnUse" gradientTransform="matrix(-30.7931,-30.7931,-30.7931,30.7931,190.8,29.5251)"><stop offset="0" style="stop-color:#00a0ff;stop-opacity:1"/><stop offset="1" style="stop-color:#00e2ff;stop-opacity:1"/></linearGradient><linearGradient id="_Linear2" x1="0" y1="0" x2="1" y2="0" gradientUnits="userSpaceOnUse" gradientTransform="matrix(-44.3974,3.98658e-09,3.98658e-09,44.3974,212.881,50.2434)"><stop offset="0" style="stop-color:#ffdf00;stop-opacity:1"/><stop offset="1" style="stop-color:#ff9c00;stop-opacity:1"/></linearGradient><linearGradient id="_Linear3" x1="0" y1="0" x2="1" y2="0" gradientUnits="userSpaceOnUse" gradientTransform="matrix(-41.7577,-41.7577,-41.7577,41.7577,196.354,54.4538)"><stop offset="0" style="stop-color:#ff3a44;stop-opacity:1"/><stop offset="1" style="stop-color:#c31162;stop-opacity:1"/></linearGradient><linearGradient id="_Linear4" x1="0" y1="0" x2="1" y2="0" gradientUnits="userSpaceOnUse" gradientTransform="matrix(18.6465,-18.6465,-18.6465,-18.6465,164.19,13.8675)"><stop offset="0" style="stop-color:#31a070;stop-opacity:1"/><stop offset="1" style="stop-color:#00ef75;stop-opacity:1"/></linearGradient><linearGradient id="_Linear5" x1="0" y1="0" x2="1" y2="0" gradientUnits="userSpaceOnUse" gradientTransform="matrix(-44.3974,3.98658e-09,3.98658e-09,44.3974,212.881,50.2434)"><stop offset="0" style="stop-color:#ccb300;stop-opacity:1"/><stop offset="1" style="stop-color:#cc7c00;stop-opacity:1"/></linearGradient><linearGradient id="_Linear6" x1="0" y1="0" x2="1" y2="0" gradientUnits="userSpaceOnUse" gradientTransform="matrix(-41.7577,-41.7577,-41.7577,41.7577,196.354,54.4538)"><stop offset="0" style="stop-color:#cc2d36;stop-opacity:1"/><stop offset="1" style="stop-color:#9c0e4d;stop-opacity:1"/></linearGradient><linearGradient id="_Linear7" x1="0" y1="0" x2="1" y2="0" gradientUnits="userSpaceOnUse" gradientTransform="matrix(-30.7931,-30.7931,-30.7931,30.7931,190.8,29.5251)"><stop offset="0" style="stop-color:#008cdf;stop-opacity:1"/><stop offset="1" style="stop-color:#00c6df;stop-opacity:1"/></linearGradient><linearGradient id="_Linear8" x1="0" y1="0" x2="1" y2="0" gradientUnits="userSpaceOnUse" gradientTransform="matrix(-41.7577,-41.7577,-41.7577,41.7577,196.354,54.4538)"><stop offset="0" style="stop-color:#df333b;stop-opacity:1"/><stop offset="1" style="stop-color:#aa0e56;stop-opacity:1"/></linearGradient><linearGradient id="_Linear9" x1="0" y1="0" x2="1" y2="0" gradientUnits="userSpaceOnUse" gradientTransform="matrix(-44.3974,3.98658e-09,3.98658e-09,44.3974,212.881,50.2434)"><stop offset="0" style="stop-color:#dfc400;stop-opacity:1"/><stop offset="1" style="stop-color:#df8900;stop-opacity:1"/></linearGradient><linearGradient id="_Linear10" x1="0" y1="0" x2="1" y2="0" gradientUnits="userSpaceOnUse" gradientTransform="matrix(-44.3974,3.98658e-09,3.98658e-09,44.3974,212.881,50.2434)"><stop offset="0" style="stop-color:#ffe83f;stop-opacity:1"/><stop offset="1" style="stop-color:#ffb53f;stop-opacity:1"/></linearGradient><linearGradient id="_Linear11" x1="0" y1="0" x2="1" y2="0" gradientUnits="userSpaceOnUse" gradientTransform="matrix(-30.7931,-30.7931,-30.7931,30.7931,190.8,29.5251)"><stop offset="0" style="stop-color:#3fb8ff;stop-opacity:1"/><stop offset="1" style="stop-color:#3fe9ff;stop-opacity:1"/></linearGradient><linearGradient id="_Linear12" x1="0" y1="0" x2="1" y2="0" gradientUnits="userSpaceOnUse" gradientTransform="matrix(18.6465,-18.6465,-18.6465,-18.6465,164.19,13.8675)"><stop offset="0" style="stop-color:#64b895;stop-opacity:1"/><stop offset="1" style="stop-color:#3ff497;stop-opacity:1"/></linearGradient></defs></svg>