<?xml version="1.0" encoding="UTF-8" standalone="no"?><!DOCTYPE svg PUBLIC "-//W3C//DTD SVG 1.1//EN" "http://www.w3.org/Graphics/SVG/1.1/DTD/svg11.dtd"><svg width="100%" height="100%" viewBox="0 0 308 44" version="1.1" xmlns="http://www.w3.org/2000/svg" xmlns:xlink="http://www.w3.org/1999/xlink" xml:space="preserve" xmlns:serif="http://www.serif.com/" style="fill-rule:evenodd;clip-rule:evenodd;stroke-linejoin:round;stroke-miterlimit:1.41421;"><g id="brand_expensify_logo"><g><path d="M117.612,20.065l16.478,0l0,-5.804l-16.478,0l0,-7.303l17.976,0l0,-6.304l-25.466,0l0,34.079l25.84,0l0,-6.304l-18.35,0l0,-8.364Z" style="fill:#37444c;fill-rule:nonzero;"/><path d="M160.678,10.079l-7.489,0l-4.307,6.429l-4.307,-6.429l-7.739,0l8.114,11.671l-8.863,12.983l7.552,0l5.181,-7.802l5.118,7.802l7.739,0l-9.113,-13.107l8.114,-11.547Z" style="fill:#37444c;fill-rule:nonzero;"/><path d="M180.089,25.37c-0.187,0.937 -0.499,1.81 -0.998,2.497c-0.437,0.687 -1.061,1.311 -1.81,1.748c-0.749,0.436 -1.686,0.686 -2.809,0.686c-1.061,0 -1.997,-0.25 -2.746,-0.686c-0.749,-0.437 -1.373,-0.999 -1.81,-1.748c-0.437,-0.687 -0.812,-1.56 -0.999,-2.497c-0.187,-0.936 -0.312,-1.934 -0.312,-2.933c0,-0.999 0.125,-1.997 0.312,-2.934c0.187,-0.936 0.499,-1.81 0.999,-2.496c0.437,-0.749 1.061,-1.311 1.81,-1.81c0.749,-0.437 1.685,-0.687 2.808,-0.687c1.061,0 1.998,0.25 2.747,0.687c0.749,0.437 1.373,1.061 1.81,1.81c0.499,0.749 0.811,1.623 0.998,2.559c0.188,0.936 0.312,1.935 0.312,2.933c0,0.937 -0.124,1.935 -0.312,2.871m4.369,-11.983c-0.936,-1.186 -2.059,-2.185 -3.495,-2.934c-1.373,-0.749 -3.058,-1.123 -4.993,-1.123c-1.498,0 -2.934,0.312 -4.182,0.936c-1.248,0.624 -2.309,1.56 -3.121,2.934l-0.124,0l0,-3.121l-6.429,0l0,33.267l6.803,0l0,-11.672l0.125,0c0.811,1.186 1.872,2.122 3.183,2.747c1.311,0.624 2.684,0.936 4.244,0.936c1.81,0 3.371,-0.375 4.744,-1.061c1.373,-0.687 2.496,-1.623 3.37,-2.809c0.936,-1.186 1.561,-2.559 1.997,-4.057c0.437,-1.498 0.687,-3.121 0.687,-4.743c0,-1.748 -0.25,-3.433 -0.687,-5.056c-0.561,-1.623 -1.248,-3.058 -2.122,-4.244" style="fill:#37444c;fill-rule:nonzero;"/><path d="M194.382,19.753c0.063,-0.499 0.125,-0.999 0.312,-1.623c0.188,-0.624 0.5,-1.186 0.937,-1.747c0.436,-0.562 0.998,-0.999 1.747,-1.373c0.687,-0.375 1.623,-0.562 2.684,-0.562c1.623,0 2.871,0.437 3.683,1.311c0.811,0.873 1.373,2.184 1.685,3.932l-11.048,0.062Zm15.167,-5.867c-0.999,-1.373 -2.309,-2.434 -3.87,-3.245c-1.56,-0.812 -3.37,-1.186 -5.492,-1.186c-1.873,0 -3.558,0.312 -5.118,0.998c-1.561,0.687 -2.871,1.561 -3.995,2.747c-1.123,1.185 -1.997,2.559 -2.559,4.119c-0.624,1.56 -0.936,3.308 -0.936,5.18c0,1.935 0.312,3.683 0.874,5.243c0.562,1.561 1.435,2.934 2.496,4.12c1.062,1.123 2.372,1.997 3.933,2.621c1.56,0.624 3.308,0.936 5.242,0.936c2.809,0 5.181,-0.624 7.178,-1.935c1.997,-1.248 3.433,-3.37 4.369,-6.366l-5.867,0c-0.249,0.749 -0.811,1.498 -1.81,2.185c-0.998,0.686 -2.184,0.998 -3.557,0.998c-1.935,0 -3.371,-0.499 -4.37,-1.498c-0.998,-0.998 -1.56,-2.559 -1.685,-4.743l17.788,0c0.125,-1.935 -0.062,-3.745 -0.499,-5.493c-0.374,-1.747 -1.123,-3.308 -2.122,-4.681" style="fill:#37444c;fill-rule:nonzero;"/><path d="M234.64,12.201c-0.687,-0.874 -1.561,-1.56 -2.746,-2.06c-1.186,-0.499 -2.622,-0.749 -4.432,-0.749c-1.435,0 -2.809,0.312 -4.182,0.999c-1.373,0.624 -2.496,1.685 -3.308,3.121l-0.125,0l0,-3.433l-6.428,0l0,24.654l6.803,0l0,-12.92c0,-2.497 0.437,-4.307 1.248,-5.43c0.812,-1.124 2.185,-1.623 3.995,-1.623c1.623,0 2.746,0.499 3.37,1.498c0.624,0.998 0.936,2.496 0.936,4.556l0,13.919l6.804,0l0,-15.167c0,-1.498 -0.125,-2.934 -0.375,-4.182c-0.374,-1.248 -0.874,-2.309 -1.56,-3.183" style="fill:#37444c;fill-rule:nonzero;"/><path d="M257.484,21.938c-0.749,-0.5 -1.561,-0.937 -2.497,-1.249c-0.936,-0.312 -1.872,-0.561 -2.871,-0.811c-0.936,-0.25 -1.873,-0.437 -2.809,-0.624c-0.936,-0.187 -1.747,-0.437 -2.434,-0.624c-0.687,-0.25 -1.311,-0.562 -1.748,-0.937c-0.436,-0.374 -0.686,-0.873 -0.686,-1.498c0,-0.499 0.125,-0.936 0.374,-1.185c0.25,-0.313 0.562,-0.562 0.937,-0.687c0.374,-0.187 0.749,-0.25 1.185,-0.312c0.437,-0.062 0.874,-0.062 1.249,-0.062c1.186,0 2.247,0.249 3.12,0.686c0.874,0.437 1.374,1.373 1.498,2.621l6.429,0c-0.125,-1.497 -0.499,-2.808 -1.186,-3.807c-0.624,-0.998 -1.498,-1.81 -2.434,-2.434c-0.999,-0.624 -2.122,-1.061 -3.37,-1.311c-1.249,-0.249 -2.559,-0.374 -3.87,-0.374c-1.311,0 -2.621,0.125 -3.932,0.374c-1.248,0.25 -2.434,0.624 -3.433,1.249c-0.999,0.561 -1.81,1.373 -2.434,2.434c-0.624,0.998 -0.936,2.309 -0.936,3.932c0,1.061 0.249,1.997 0.686,2.746c0.437,0.749 1.061,1.373 1.748,1.873c0.749,0.499 1.56,0.873 2.496,1.185c0.937,0.313 1.873,0.562 2.872,0.812c2.434,0.499 4.306,0.998 5.679,1.498c1.373,0.499 1.998,1.248 1.998,2.309c0,0.624 -0.125,1.124 -0.437,1.498c-0.312,0.375 -0.625,0.687 -1.061,0.936c-0.437,0.25 -0.937,0.437 -1.436,0.5c-0.499,0.124 -0.999,0.187 -1.498,0.187c-0.686,0 -1.311,-0.063 -1.935,-0.25c-0.624,-0.187 -1.186,-0.374 -1.623,-0.749c-0.499,-0.312 -0.873,-0.749 -1.185,-1.31c-0.313,-0.5 -0.437,-1.124 -0.437,-1.873l-6.429,0c0.062,1.685 0.437,3.058 1.123,4.119c0.687,1.124 1.561,1.998 2.622,2.622c1.061,0.686 2.309,1.123 3.62,1.435c1.373,0.312 2.746,0.437 4.182,0.437c1.373,0 2.746,-0.125 4.119,-0.374c1.373,-0.25 2.559,-0.749 3.62,-1.436c1.061,-0.686 1.873,-1.56 2.559,-2.621c0.624,-1.124 0.999,-2.434 0.999,-4.057c0,-1.124 -0.25,-2.122 -0.687,-2.871c-0.374,-0.812 -0.998,-1.436 -1.747,-1.997" style="fill:#37444c;fill-rule:nonzero;"/><rect x="260.604" y="0.654" width="6.803" height="5.555" style="fill:#37444c;"/><rect x="260.604" y="10.079" width="6.803" height="24.654" style="fill:#37444c;"/><path d="M300.238,10.079l-5.368,16.914l-0.125,0l-5.555,-16.914l-5.43,0l-1.81,0l-2.933,0l0,-1.498c0,-0.999 0.187,-1.748 0.624,-2.185c0.374,-0.437 1.061,-0.624 1.997,-0.624c0.874,0 1.685,0.063 2.497,0.125l0,-5.056c-0.562,-0.062 -1.186,-0.062 -1.748,-0.124c-0.624,-0.063 -1.186,-0.063 -1.81,-0.063c-2.746,0 -4.806,0.687 -6.179,2.122c-1.373,1.373 -2.06,3.183 -2.06,5.368l0,1.935l-4.119,0l0,4.556l4.057,0l0,20.098l6.803,0l0,-20.16l4.619,0l6.928,18.599c0.187,0.5 0.312,0.999 0.312,1.498c0,0.749 -0.187,1.373 -0.624,1.997c-0.437,0.625 -1.061,0.937 -1.998,1.061c-0.686,0.063 -1.31,0 -1.997,-0.062c-0.686,-0.062 -1.311,-0.125 -1.935,-0.187l0,5.555c0.687,0.062 1.373,0.125 2.06,0.187c0.687,0.062 1.373,0.062 2.06,0.062c2.309,0 4.119,-0.436 5.43,-1.31c1.31,-0.874 2.309,-2.31 3.058,-4.307l10.298,-27.712l-7.052,0l0,0.125Z" style="fill:#37444c;fill-rule:nonzero;"/></g><path d="M106.378,31.487c0,1.748 -1.436,3.183 -3.184,3.183l-27.649,0c-1.748,0 -3.183,-1.435 -3.183,-3.183l0,-27.65c0,-1.747 1.435,-3.183 3.183,-3.183l27.649,0c1.748,0 3.184,1.436 3.184,3.183l0,27.65Z" style="fill:#00a7da;fill-rule:nonzero;"/><path d="M70.552,31.487c0,1.748 -1.436,3.183 -3.184,3.183l-27.649,0c-1.748,0 -3.183,-1.435 -3.183,-3.183l0,-27.65c0,-1.747 1.435,-3.183 3.183,-3.183l27.649,0c1.748,0 3.184,1.436 3.184,3.183l0,27.65Z" style="fill:#abbf00;fill-rule:nonzero;"/><path d="M34.726,31.487c0,1.748 -1.436,3.183 -3.184,3.183l-27.649,0c-1.748,0 -3.183,-1.435 -3.183,-3.183l0,-27.65c0,-1.747 1.435,-3.183 3.183,-3.183l27.649,0c1.748,0 3.184,1.436 3.184,3.183l0,27.65Z" style="fill:#ffd100;fill-rule:nonzero;"/><path d="M99.2,5.71c1.56,-1.561 3.87,0.749 2.247,2.372l-6.429,6.428l3.62,14.418l-2.372,2.372l-5.991,-11.921l-4.806,4.806l0.437,3.682l-1.873,1.872l-2.184,-4.181l-4.182,-2.185l1.872,-1.872l3.683,0.437l4.806,-4.806l-11.922,-5.992l2.372,-2.372l14.293,3.433l6.429,-6.491Z" style="fill:#fff;fill-rule:nonzero;"/><path d="M55.884,6.646l0,14.231l1.56,0l0,9.362c0,2.059 2.934,2.122 2.934,0l0,-23.593c0,-3.37 -4.494,-3.37 -4.494,0m-3.37,6.554c0,0.873 -0.812,1.872 -1.873,1.872l0,15.229c0,2.185 -2.933,2.185 -2.933,0l0,-15.291c-1.061,0 -1.935,-0.812 -1.935,-1.998l0,-8.363c0,-0.749 1.061,-0.749 1.061,0l0,6.179l0.874,0l0,-6.242c0,-0.686 0.998,-0.686 0.998,0l0,6.242l0.937,0l0,-6.242c0,-0.686 0.998,-0.749 0.998,0l0,6.179l0.874,0l0,-6.241c0,-0.687 0.999,-0.749 0.999,0l0,8.676Z" style="fill:#37444c;fill-rule:nonzero;"/><path d="M27.298,21.376c-1.061,0 -1.935,-0.874 -1.935,-1.997c0,-1.124 0.874,-1.998 1.935,-1.998c1.061,0 1.935,0.874 1.935,1.998c0,1.123 -0.874,1.997 -1.935,1.997m-9.487,-6.179l-8.988,0l1.686,-4.619c0.187,-0.624 0.561,-1.123 1.31,-1.123l11.984,0c0.749,0 1.061,0.499 1.311,1.123l1.685,4.619l-8.988,0Zm-9.487,6.179c-1.061,0 -1.935,-0.874 -1.935,-1.997c0,-1.124 0.874,-1.998 1.935,-1.998c1.061,0 1.935,0.874 1.935,1.998c0,1.123 -0.874,1.997 -1.935,1.997m20.847,-6.117l-2.247,-5.867c-0.437,-1.123 -1.373,-2.059 -3.121,-2.059l-3.183,0l0,-1.81c0,-0.313 -0.25,-0.562 -0.562,-0.562l-4.369,0c-0.312,0 -0.562,0.249 -0.562,0.562l0,1.747l-3.245,0c-1.748,0 -2.684,0.936 -3.121,2.06l-2.247,5.867c-0.874,0.125 -2.496,1.186 -2.496,3.183l0,7.49l2.184,0l0,2.371c0,2.934 4.182,2.934 4.182,0l0,-2.371l14.979,0l0,2.371c0,2.934 4.182,2.934 4.182,0l0,-2.371l2.185,0l0,-7.49c-0.063,-1.935 -1.686,-2.996 -2.559,-3.121" style="fill:#37444c;fill-rule:nonzero;"/></g></svg>