<?xml version="1.0" encoding="UTF-8" standalone="no"?><!DOCTYPE svg PUBLIC "-//W3C//DTD SVG 1.1//EN" "http://www.w3.org/Graphics/SVG/1.1/DTD/svg11.dtd"><svg width="100%" height="100%" viewBox="0 0 1001 101" version="1.1" xmlns="http://www.w3.org/2000/svg" xmlns:xlink="http://www.w3.org/1999/xlink" xml:space="preserve" xmlns:serif="http://www.serif.com/" style="fill-rule:evenodd;clip-rule:evenodd;stroke-linejoin:round;stroke-miterlimit:1.41421;"><rect id="gh-readme-app" x="0.125" y="0.367" width="1000" height="100" style="fill:none;"/><path d="M997.125,10.349c0,-4.473 -3.632,-8.105 -8.105,-8.105l-977.417,0c-4.474,0 -8.105,3.632 -8.105,8.105l0,79.789c0,4.474 3.631,8.106 8.105,8.106l977.417,0c4.473,0 8.105,-3.632 8.105,-8.106l0,-79.789Z"/><g id="Content"><text x="237.225px" y="62.009px" style="font-family:'Intro-Book', 'Intro Book';font-size:36px;fill:#fff;">Get <tspan x="308.829px 323.985px " y="62.009px 62.009px ">th</tspan>e sample app on Google Pla<tspan x="812.505px " y="62.009px ">y</tspan></text><g><path d="M170.083,72.974l-0.136,-0.13c-0.534,-0.565 -0.849,-1.442 -0.849,-2.578l0,0.266l0,-40.579c0,-0.002 0,-0.005 0,-0.009l0,0.279c0,-1.229 0.368,-2.158 0.983,-2.712l22.734,22.732l-22.732,22.731Zm-0.985,-43.032c0,-0.101 0.003,-0.2 0.007,-0.295c-0.004,0.095 -0.007,0.194 -0.007,0.295Zm0.009,-0.301c0,0 0,-0.002 0,-0.003c0,0.001 0,0.003 0,0.003Zm0,-0.013l0,-0.001l0,0.001Z" style="fill:url(#_Linear1);"/><path d="M200.391,58.092l0.172,-0.099l8.978,-5.101c0.857,-0.486 1.427,-1.075 1.712,-1.701c-0.285,0.626 -0.855,1.215 -1.712,1.703l-8.978,5.101l-0.172,0.097Zm0.001,-0.27l-7.577,-7.579l7.577,-7.578l9.149,5.198c1.163,0.659 1.815,1.51 1.923,2.38c0,0 0,0.002 0,0.003c-0.108,0.866 -0.76,1.718 -1.923,2.378l-9.149,5.198Z" style="fill:url(#_Linear2);"/><path d="M171.703,73.84c-0.635,0 -1.187,-0.207 -1.62,-0.596l0,-0.002c0.433,0.391 0.987,0.598 1.622,0.598c0.055,0 0.112,-0.001 0.169,-0.005c-0.057,0.004 -0.114,0.005 -0.171,0.005Zm0.002,-0.269c-0.635,0.002 -1.189,-0.206 -1.622,-0.597l22.732,-22.731l7.577,7.579l-26.632,15.134c-0.736,0.418 -1.435,0.615 -2.055,0.615Zm-1.628,-0.332c-0.04,-0.037 -0.08,-0.076 -0.119,-0.116l0.119,0.116Z" style="fill:url(#_Linear3);"/><path d="M192.815,50.243l-22.734,-22.732c0.433,-0.389 0.985,-0.596 1.62,-0.596c0.622,0 1.321,0.198 2.059,0.618l26.632,15.132l-7.577,7.578Zm7.748,-7.749l-26.803,-15.229c-0.738,-0.42 -1.437,-0.618 -2.059,-0.618c-0.002,0 -0.005,0 -0.007,0c0.002,0 0.005,0 0.009,0c0.622,0 1.319,0.198 2.057,0.616l26.803,15.229l0,0.002Z" style="fill:url(#_Linear4);"/><path d="M171.874,73.835c0.576,-0.033 1.214,-0.231 1.886,-0.611l26.631,-15.132l-26.631,15.132c-0.672,0.382 -1.31,0.58 -1.886,0.611Zm-1.791,-0.591l-0.006,-0.005c0.002,0.001 0.004,0.003 0.006,0.005Zm-0.125,-0.121l-0.011,-0.011c0.004,0.004 0.007,0.007 0.011,0.011Z" style="fill-rule:nonzero;"/><path d="M200.391,58.092l0.172,-0.099l-0.172,0.099Z" style="fill:url(#_Linear5);"/><path d="M171.705,73.84c-0.635,0 -1.189,-0.207 -1.622,-0.598l0,0.002c-0.002,-0.002 -0.004,-0.004 -0.006,-0.005l-0.119,-0.116c-0.004,-0.004 -0.007,-0.007 -0.011,-0.011l0.136,-0.138c0.433,0.391 0.987,0.599 1.622,0.597c0.62,0 1.319,-0.197 2.055,-0.615l26.632,-15.134l0.171,0.171l-0.172,0.099l-26.631,15.132c-0.672,0.38 -1.31,0.578 -1.886,0.611c-0.057,0.004 -0.114,0.005 -0.169,0.005Z" style="fill:url(#_Linear6);"/><path d="M169.947,73.112c-0.534,-0.565 -0.849,-1.442 -0.849,-2.578l0,-0.002c0,1.138 0.315,2.015 0.849,2.578l0,0.002Z" style="fill-rule:nonzero;"/><path d="M169.947,73.11c-0.534,-0.563 -0.849,-1.44 -0.849,-2.578l0,-0.266c0,1.136 0.315,2.013 0.849,2.578l0.136,0.13l-0.136,0.136Z" style="fill:url(#_Linear7);"/><path d="M169.947,73.112l0,-0.002l0.136,-0.136l-0.136,0.138Z" style="fill:url(#_Linear8);"/><path d="M211.253,51.191c0.141,-0.308 0.211,-0.627 0.211,-0.945c0,-0.001 0.002,-0.001 0.002,-0.001c0,0.319 -0.072,0.636 -0.213,0.946Z" style="fill-rule:nonzero;"/><path d="M200.563,57.993l-0.171,-0.171l9.149,-5.198c1.163,-0.66 1.815,-1.512 1.923,-2.378c0,0.318 -0.07,0.637 -0.211,0.945c-0.285,0.626 -0.855,1.215 -1.712,1.701l-8.978,5.101Z" style="fill:url(#_Linear9);"/><path d="M211.466,50.243l-0.002,0c0,-0.96 -0.641,-1.92 -1.923,-2.648l-8.978,-5.101l0,-0.002l8.978,5.103c1.282,0.728 1.925,1.688 1.925,2.648Z" style="fill:#404040;fill-rule:nonzero;"/><path d="M211.464,50.243c-0.108,-0.87 -0.76,-1.721 -1.923,-2.38l-9.149,-5.198l0.171,-0.171l8.978,5.101c1.282,0.728 1.923,1.688 1.923,2.648Z" style="fill:url(#_Linear10);"/><path d="M169.098,29.944l0,-0.002l0,0.002Zm0.007,-0.297c0.002,-0.002 0.002,-0.004 0.002,-0.006c0,0.002 0,0.004 -0.002,0.006Zm0.002,-0.009c0,-0.002 0,-0.006 0,-0.01c0,0.004 0,0.008 0,0.01Zm0,-0.011c0.106,-1.885 1.13,-2.973 2.58,-2.98c-0.628,0.003 -1.175,0.209 -1.604,0.596l-0.006,0.006c-0.044,0.04 -0.088,0.082 -0.13,0.126c-0.481,0.51 -0.785,1.274 -0.84,2.252Z" style="fill:#404040;fill-rule:nonzero;"/><path d="M169.098,30.223l0,-0.268c0,-0.004 0,-0.007 0,-0.011l0,-0.002c0,-0.101 0.003,-0.2 0.007,-0.295c0.002,-0.002 0.002,-0.004 0.002,-0.006c0,0 0,-0.002 0,-0.003c0,-0.002 0,-0.006 0,-0.01l0,-0.001c0.055,-0.978 0.359,-1.742 0.84,-2.252l0.134,0.136c-0.615,0.554 -0.983,1.483 -0.983,2.712Zm0.979,-2.974l0.006,-0.006c-0.002,0.002 -0.004,0.004 -0.006,0.006Z" style="fill:url(#_Linear11);"/><path d="M171.687,26.647c0.001,0 0.003,0 0.007,0c-0.004,0 -0.006,0 -0.007,0Z" style="fill:#404040;fill-rule:nonzero;"/><path d="M200.392,42.665l-26.632,-15.132c-0.738,-0.42 -1.437,-0.618 -2.059,-0.618c-0.635,0 -1.187,0.207 -1.62,0.596l-0.134,-0.136c0.042,-0.044 0.086,-0.086 0.13,-0.126c0.002,-0.002 0.004,-0.004 0.006,-0.006c0.429,-0.387 0.976,-0.593 1.604,-0.596l0.014,0c0.622,0 1.321,0.198 2.059,0.618l26.803,15.229l-0.171,0.171Z" style="fill:url(#_Linear12);"/></g></g><defs><linearGradient id="_Linear1" x1="0" y1="0" x2="1" y2="0" gradientUnits="userSpaceOnUse" gradientTransform="matrix(-30.7931,-30.7931,-30.7931,30.7931,190.8,29.5251)"><stop offset="0" style="stop-color:#00a0ff;stop-opacity:1"/><stop offset="1" style="stop-color:#00e2ff;stop-opacity:1"/></linearGradient><linearGradient id="_Linear2" x1="0" y1="0" x2="1" y2="0" gradientUnits="userSpaceOnUse" gradientTransform="matrix(-44.3974,3.98658e-09,3.98658e-09,44.3974,212.881,50.2434)"><stop offset="0" style="stop-color:#ffdf00;stop-opacity:1"/><stop offset="1" style="stop-color:#ff9c00;stop-opacity:1"/></linearGradient><linearGradient id="_Linear3" x1="0" y1="0" x2="1" y2="0" gradientUnits="userSpaceOnUse" gradientTransform="matrix(-41.7577,-41.7577,-41.7577,41.7577,196.354,54.4538)"><stop offset="0" style="stop-color:#ff3a44;stop-opacity:1"/><stop offset="1" style="stop-color:#c31162;stop-opacity:1"/></linearGradient><linearGradient id="_Linear4" x1="0" y1="0" x2="1" y2="0" gradientUnits="userSpaceOnUse" gradientTransform="matrix(18.6465,-18.6465,-18.6465,-18.6465,164.19,13.8675)"><stop offset="0" style="stop-color:#31a070;stop-opacity:1"/><stop offset="1" style="stop-color:#00ef75;stop-opacity:1"/></linearGradient><linearGradient id="_Linear5" x1="0" y1="0" x2="1" y2="0" gradientUnits="userSpaceOnUse" gradientTransform="matrix(-44.3974,3.98658e-09,3.98658e-09,44.3974,212.881,50.2434)"><stop offset="0" style="stop-color:#ccb300;stop-opacity:1"/><stop offset="1" style="stop-color:#cc7c00;stop-opacity:1"/></linearGradient><linearGradient id="_Linear6" x1="0" y1="0" x2="1" y2="0" gradientUnits="userSpaceOnUse" gradientTransform="matrix(-41.7577,-41.7577,-41.7577,41.7577,196.354,54.4538)"><stop offset="0" style="stop-color:#cc2d36;stop-opacity:1"/><stop offset="1" style="stop-color:#9c0e4d;stop-opacity:1"/></linearGradient><linearGradient id="_Linear7" x1="0" y1="0" x2="1" y2="0" gradientUnits="userSpaceOnUse" gradientTransform="matrix(-30.7931,-30.7931,-30.7931,30.7931,190.8,29.5251)"><stop offset="0" style="stop-color:#008cdf;stop-opacity:1"/><stop offset="1" style="stop-color:#00c6df;stop-opacity:1"/></linearGradient><linearGradient id="_Linear8" x1="0" y1="0" x2="1" y2="0" gradientUnits="userSpaceOnUse" gradientTransform="matrix(-41.7577,-41.7577,-41.7577,41.7577,196.354,54.4538)"><stop offset="0" style="stop-color:#df333b;stop-opacity:1"/><stop offset="1" style="stop-color:#aa0e56;stop-opacity:1"/></linearGradient><linearGradient id="_Linear9" x1="0" y1="0" x2="1" y2="0" gradientUnits="userSpaceOnUse" gradientTransform="matrix(-44.3974,3.98658e-09,3.98658e-09,44.3974,212.881,50.2434)"><stop offset="0" style="stop-color:#dfc400;stop-opacity:1"/><stop offset="1" style="stop-color:#df8900;stop-opacity:1"/></linearGradient><linearGradient id="_Linear10" x1="0" y1="0" x2="1" y2="0" gradientUnits="userSpaceOnUse" gradientTransform="matrix(-44.3974,3.98658e-09,3.98658e-09,44.3974,212.881,50.2434)"><stop offset="0" style="stop-color:#ffe83f;stop-opacity:1"/><stop offset="1" style="stop-color:#ffb53f;stop-opacity:1"/></linearGradient><linearGradient id="_Linear11" x1="0" y1="0" x2="1" y2="0" gradientUnits="userSpaceOnUse" gradientTransform="matrix(-30.7931,-30.7931,-30.7931,30.7931,190.8,29.5251)"><stop offset="0" style="stop-color:#3fb8ff;stop-opacity:1"/><stop offset="1" style="stop-color:#3fe9ff;stop-opacity:1"/></linearGradient><linearGradient id="_Linear12" x1="0" y1="0" x2="1" y2="0" gradientUnits="userSpaceOnUse" gradientTransform="matrix(18.6465,-18.6465,-18.6465,-18.6465,164.19,13.8675)"><stop offset="0" style="stop-color:#64b895;stop-opacity:1"/><stop offset="1" style="stop-color:#3ff497;stop-opacity:1"/></linearGradient></defs></svg>