<?xml version="1.0" encoding="UTF-8" standalone="no"?><!DOCTYPE svg PUBLIC "-//W3C//DTD SVG 1.1//EN" "http://www.w3.org/Graphics/SVG/1.1/DTD/svg11.dtd"><svg width="100%" height="100%" viewBox="0 0 261 52" version="1.1" xmlns="http://www.w3.org/2000/svg" xmlns:xlink="http://www.w3.org/1999/xlink" xml:space="preserve" xmlns:serif="http://www.serif.com/" style="fill-rule:evenodd;clip-rule:evenodd;stroke-linejoin:round;stroke-miterlimit:1.41421;"><g id="brand_goosechase_logo"><g><path d="M22.001,20.93c-1.172,-1.785 -3.738,-3.068 -6.082,-3.068c-4.017,0 -6.807,2.789 -6.807,7.42c0,4.631 2.79,7.421 6.807,7.421c2.344,0 4.91,-1.34 6.082,-3.069l0,-8.704Zm-15.845,20.03c2.176,2.399 5.021,3.347 8.424,3.347c3.404,0 7.421,-1.506 7.421,-6.806l0,-2.734c-2.121,2.678 -5.022,4.24 -8.314,4.24c-6.75,0 -11.883,-4.742 -11.883,-13.725c0,-8.815 5.077,-13.725 11.883,-13.725c3.236,0 6.138,1.395 8.314,4.129l0,-3.459l7.141,0l0,25.106c0,10.266 -7.922,12.777 -14.562,12.777c-4.63,0 -8.257,-1.06 -11.605,-4.017l3.181,-5.133Z" style="fill:url(#_Linear1);"/><path d="M50.566,25.673c0,-4.185 -2.51,-7.811 -6.918,-7.811c-4.408,0 -6.863,3.626 -6.863,7.811c0,4.24 2.455,7.866 6.863,7.866c4.408,0 6.918,-3.626 6.918,-7.866Zm-21.145,0c0,-7.644 5.356,-14.116 14.227,-14.116c8.927,0 14.283,6.472 14.283,14.116c0,7.699 -5.356,14.171 -14.283,14.171c-8.871,0 -14.227,-6.472 -14.227,-14.171Z" style="fill:url(#_Linear2);"/><path d="M77.569,25.673c0,-4.185 -2.511,-7.811 -6.918,-7.811c-4.408,0 -6.863,3.626 -6.863,7.811c0,4.24 2.455,7.866 6.863,7.866c4.407,0 6.918,-3.626 6.918,-7.866Zm-21.145,0c0,-7.644 5.355,-14.116 14.227,-14.116c8.926,0 14.282,6.472 14.282,14.116c0,7.699 -5.356,14.171 -14.282,14.171c-8.872,0 -14.227,-6.472 -14.227,-14.171Z" style="fill:url(#_Linear3);"/><path d="M85.882,30.694c1.952,1.841 5.969,3.682 9.317,3.682c3.068,0 4.519,-1.06 4.519,-2.734c0,-1.896 -2.343,-2.566 -5.412,-3.18c-4.631,-0.892 -10.6,-2.008 -10.6,-8.424c0,-4.52 3.961,-8.481 11.047,-8.481c4.575,0 8.201,1.563 10.823,3.683l-2.789,4.853c-1.618,-1.729 -4.687,-3.124 -7.979,-3.124c-2.566,0 -4.24,0.948 -4.24,2.511c0,1.674 2.12,2.287 5.133,2.901c4.631,0.893 10.824,2.12 10.824,8.815c0,4.966 -4.184,8.648 -11.66,8.648c-4.687,0 -9.207,-1.562 -12.052,-4.184l3.069,-4.966Z" style="fill:url(#_Linear4);"/><path d="M112.327,23.162l13.278,0c-0.167,-2.567 -1.953,-5.97 -6.639,-5.97c-4.408,0 -6.305,3.292 -6.639,5.97Zm6.639,-11.605c8.034,0 13.501,6.026 13.501,14.841l0,1.562l-20.029,0c0.447,3.403 3.18,6.249 7.755,6.249c2.511,0 5.468,-1.004 7.197,-2.678l3.124,4.575c-2.733,2.51 -6.917,3.738 -11.102,3.738c-8.202,0 -14.394,-5.523 -14.394,-14.171c0,-7.811 5.746,-14.116 13.948,-14.116Z" style="fill:url(#_Linear5);"/><path d="M260.258,26.2c0,-9.688 -6.215,-16.453 -15.114,-16.453c-4.6,0 -8.609,1.821 -11.407,4.821l-0.966,-0.781c-2.28,-1.843 -6.185,-4.04 -11.838,-4.04c-5.976,0 -9.716,2.47 -11.471,5.594c-2.044,-3.613 -6.139,-5.594 -11.903,-5.594c-4.881,0 -9.441,1.649 -12.837,4.643l-0.183,0.161c-1.578,-3.103 -4.758,-4.804 -9.238,-4.804c-3.437,0 -6.055,1.104 -7.869,2.283l0,-11.878l-10.312,0l0,11.99c-1.986,-1.316 -4.79,-2.395 -8.651,-2.395c-9.211,0 -15.895,6.614 -15.895,15.727c0,9.146 6.684,15.783 15.895,15.783c3.861,0 6.665,-1.078 8.651,-2.395l0,1.726l10.312,0l0,-19.164c0.715,-0.795 2.262,-2.146 4.522,-2.146c2.58,0 3.407,0.801 3.407,3.295l0,18.015l10.312,0l0,-2.541c2.131,2.109 5.133,3.21 8.037,3.21c2.545,0 4.956,-0.616 6.922,-1.72l0,1.051l10.312,0l0,-1.794c2.88,1.571 6.441,2.463 10.101,2.463c5.649,0 9.977,-2.089 12.005,-5.504c2.837,3.45 7.239,5.504 12.541,5.504c4.867,0 9.311,-1.517 12.192,-4.162l1.029,-0.945l-4.627,-6.775l6.073,0l0,-3.175Z" style="fill:#333;fill-rule:nonzero;"/><path d="M148.469,11.361c5.523,0 8.87,2.398 10.655,4.909l-4.63,4.295c-1.284,-1.841 -3.236,-2.901 -5.69,-2.901c-4.296,0 -7.308,3.124 -7.308,7.81c0,4.686 3.012,7.866 7.308,7.866c2.454,0 4.406,-1.116 5.69,-2.901l4.63,4.296c-1.785,2.51 -5.132,4.909 -10.655,4.909c-8.312,0 -14.281,-5.858 -14.281,-14.17c0,-8.256 5.969,-14.113 14.281,-14.113Z" style="fill:#fff;fill-rule:nonzero;"/><path d="M176.975,22.573c0,-3.737 -1.952,-4.909 -5.021,-4.909c-2.733,0 -4.909,1.562 -6.136,3.18l0,18.13l-7.085,0l0,-37.209l7.085,0l0,13.779c1.729,-2.063 5.077,-4.183 9.483,-4.183c5.914,0 8.759,3.235 8.759,8.479l0,19.134l-7.085,0l0,-16.401Z" style="fill:#fff;fill-rule:nonzero;"/><path d="M202.246,29.156c-1.172,-1.562 -3.403,-2.343 -5.69,-2.343c-2.79,0 -5.078,1.506 -5.078,4.073c0,2.509 2.288,3.96 5.078,3.96c2.287,0 4.518,-0.781 5.69,-2.343l0,-3.347Zm0,7.029c-1.841,2.176 -5.021,3.459 -8.536,3.459c-4.295,0 -9.372,-2.901 -9.372,-8.926c0,-6.304 5.077,-8.591 9.372,-8.591c3.571,0 6.75,1.116 8.536,3.292l0,-3.738c0,-2.734 -2.343,-4.519 -5.914,-4.519c-2.901,0 -5.579,1.06 -7.866,3.18l-2.677,-4.742c3.291,-2.901 7.531,-4.239 11.77,-4.239c6.137,0 11.772,2.454 11.772,10.208l0,17.405l-7.085,0l0,-2.789Z" style="fill:#fff;fill-rule:nonzero;"/><path d="M212.064,30.495c1.952,1.841 5.968,3.682 9.316,3.682c3.068,0 4.518,-1.06 4.518,-2.734c0,-1.896 -2.343,-2.566 -5.411,-3.179c-4.63,-0.893 -10.599,-2.009 -10.599,-8.424c0,-4.518 3.961,-8.479 11.045,-8.479c4.575,0 8.201,1.562 10.823,3.681l-2.789,4.854c-1.618,-1.729 -4.686,-3.124 -7.978,-3.124c-2.566,0 -4.239,0.948 -4.239,2.51c0,1.674 2.119,2.287 5.132,2.901c4.63,0.892 10.822,2.12 10.822,8.814c0,4.965 -4.184,8.647 -11.659,8.647c-4.686,0 -9.204,-1.562 -12.049,-4.184l3.068,-4.965Z" style="fill:#fff;fill-rule:nonzero;"/><path d="M238.506,22.964l13.276,0c-0.167,-2.566 -1.952,-5.969 -6.638,-5.969c-4.407,0 -6.304,3.291 -6.638,5.969Zm6.638,-11.603c8.033,0 13.5,6.025 13.5,14.839l0,1.561l-20.027,0c0.447,3.403 3.18,6.249 7.754,6.249c2.51,0 5.467,-1.005 7.197,-2.678l3.123,4.574c-2.733,2.51 -6.916,3.738 -11.1,3.738c-8.201,0 -14.394,-5.523 -14.394,-14.17c0,-7.81 5.747,-14.113 13.947,-14.113Z" style="fill:#fff;fill-rule:nonzero;"/><path d="M134.081,26.398c0,-9.688 -6.216,-16.454 -15.115,-16.454c-4.601,0 -8.61,1.821 -11.409,4.822l-0.966,-0.781c-2.281,-1.844 -6.185,-4.041 -11.838,-4.041c-6.068,0 -9.828,2.546 -11.549,5.735c-2.837,-3.564 -7.28,-5.735 -12.553,-5.735c-5.902,0 -10.759,2.737 -13.478,7.112c-2.729,-4.375 -7.603,-7.112 -13.525,-7.112c-5.498,0 -10.091,2.375 -12.892,6.237l0,-5.568l-10.369,0l0,1.365c-1.961,-1.34 -4.227,-2.034 -6.7,-2.034c-3.905,0 -7.255,1.412 -9.687,4.084c-2.493,2.738 -3.81,6.63 -3.81,11.254c0,5.876 2.107,10.44 5.719,13.011l-5.023,8.108l1.021,0.901c3.461,3.058 7.37,4.421 12.673,4.421c10.28,0 16.176,-5.245 16.176,-14.39l0,-2.135c2.801,3.876 7.394,6.26 12.892,6.26c5.922,0 10.796,-2.748 13.525,-7.138c2.719,4.39 7.576,7.138 13.478,7.138c4.564,0 8.507,-1.632 11.324,-4.39c3.142,2.752 7.926,4.39 12.89,4.39c5.649,0 9.977,-2.09 12.005,-5.506c2.838,3.452 7.24,5.506 12.542,5.506c4.868,0 9.313,-1.518 12.194,-4.164l1.029,-0.944l-4.628,-6.776l6.074,0l0,-3.176Z" style="fill:#333;fill-rule:nonzero;"/><path d="M22.001,20.93c-1.172,-1.785 -3.738,-3.068 -6.082,-3.068c-4.017,0 -6.807,2.789 -6.807,7.42c0,4.631 2.79,7.421 6.807,7.421c2.344,0 4.91,-1.34 6.082,-3.069l0,-8.704Zm-15.845,20.03c2.176,2.399 5.021,3.347 8.424,3.347c3.404,0 7.421,-1.506 7.421,-6.806l0,-2.734c-2.121,2.678 -5.022,4.24 -8.314,4.24c-6.75,0 -11.883,-4.742 -11.883,-13.725c0,-8.815 5.077,-13.725 11.883,-13.725c3.236,0 6.138,1.395 8.314,4.129l0,-3.459l7.141,0l0,25.106c0,10.266 -7.922,12.777 -14.562,12.777c-4.63,0 -8.257,-1.06 -11.605,-4.017l3.181,-5.133Z" style="fill:url(#_Linear6);"/><path d="M50.566,25.673c0,-4.185 -2.51,-7.811 -6.918,-7.811c-4.408,0 -6.863,3.626 -6.863,7.811c0,4.24 2.455,7.866 6.863,7.866c4.408,0 6.918,-3.626 6.918,-7.866Zm-21.145,0c0,-7.644 5.356,-14.116 14.227,-14.116c8.927,0 14.283,6.472 14.283,14.116c0,7.699 -5.356,14.171 -14.283,14.171c-8.871,0 -14.227,-6.472 -14.227,-14.171Z" style="fill:url(#_Linear7);"/><path d="M77.569,25.673c0,-4.185 -2.511,-7.811 -6.918,-7.811c-4.408,0 -6.863,3.626 -6.863,7.811c0,4.24 2.455,7.866 6.863,7.866c4.407,0 6.918,-3.626 6.918,-7.866Zm-21.145,0c0,-7.644 5.355,-14.116 14.227,-14.116c8.926,0 14.282,6.472 14.282,14.116c0,7.699 -5.356,14.171 -14.282,14.171c-8.872,0 -14.227,-6.472 -14.227,-14.171Z" style="fill:url(#_Linear8);"/><path d="M85.882,30.694c1.952,1.841 5.969,3.682 9.317,3.682c3.068,0 4.519,-1.06 4.519,-2.734c0,-1.896 -2.343,-2.566 -5.412,-3.18c-4.631,-0.892 -10.6,-2.008 -10.6,-8.424c0,-4.52 3.961,-8.481 11.047,-8.481c4.575,0 8.201,1.563 10.823,3.683l-2.789,4.853c-1.618,-1.729 -4.687,-3.124 -7.979,-3.124c-2.566,0 -4.24,0.948 -4.24,2.511c0,1.674 2.12,2.287 5.133,2.901c4.631,0.893 10.824,2.12 10.824,8.815c0,4.966 -4.184,8.648 -11.66,8.648c-4.687,0 -9.207,-1.562 -12.052,-4.184l3.069,-4.966Z" style="fill:url(#_Linear9);"/><path d="M112.327,23.162l13.278,0c-0.167,-2.567 -1.953,-5.97 -6.639,-5.97c-4.408,0 -6.305,3.292 -6.639,5.97Zm6.639,-11.605c8.034,0 13.501,6.026 13.501,14.841l0,1.562l-20.029,0c0.447,3.403 3.18,6.249 7.755,6.249c2.511,0 5.468,-1.004 7.197,-2.678l3.124,4.575c-2.733,2.51 -6.917,3.738 -11.102,3.738c-8.202,0 -14.394,-5.523 -14.394,-14.171c0,-7.811 5.746,-14.116 13.948,-14.116Z" style="fill:url(#_Linear10);"/></g></g><defs><linearGradient id="_Linear1" x1="0" y1="0" x2="1" y2="0" gradientUnits="userSpaceOnUse" gradientTransform="matrix(2.36066e-16,-38.5526,38.5526,2.36066e-16,15.4729,50.1095)"><stop offset="0" style="stop-color:#ef6926;stop-opacity:1"/><stop offset="1" style="stop-color:#fdbc1c;stop-opacity:1"/></linearGradient><linearGradient id="_Linear2" x1="0" y1="0" x2="1" y2="0" gradientUnits="userSpaceOnUse" gradientTransform="matrix(1.73207e-16,-28.2868,28.2868,1.73207e-16,43.6755,39.8441)"><stop offset="0" style="stop-color:#ef6926;stop-opacity:1"/><stop offset="1" style="stop-color:#fdbc1c;stop-opacity:1"/></linearGradient><linearGradient id="_Linear3" x1="0" y1="0" x2="1" y2="0" gradientUnits="userSpaceOnUse" gradientTransform="matrix(1.73207e-16,-28.2868,28.2868,1.73207e-16,70.6786,39.8441)"><stop offset="0" style="stop-color:#ef6926;stop-opacity:1"/><stop offset="1" style="stop-color:#fdbc1c;stop-opacity:1"/></linearGradient><linearGradient id="_Linear4" x1="0" y1="0" x2="1" y2="0" gradientUnits="userSpaceOnUse" gradientTransform="matrix(1.73207e-16,-28.2868,28.2868,1.73207e-16,94.669,39.8441)"><stop offset="0" style="stop-color:#ef6926;stop-opacity:1"/><stop offset="1" style="stop-color:#fdbc1c;stop-opacity:1"/></linearGradient><linearGradient id="_Linear5" x1="0" y1="0" x2="1" y2="0" gradientUnits="userSpaceOnUse" gradientTransform="matrix(1.73207e-16,-28.2868,28.2868,1.73207e-16,118.743,39.8441)"><stop offset="0" style="stop-color:#ef6926;stop-opacity:1"/><stop offset="1" style="stop-color:#fdbc1c;stop-opacity:1"/></linearGradient><linearGradient id="_Linear6" x1="0" y1="0" x2="1" y2="0" gradientUnits="userSpaceOnUse" gradientTransform="matrix(2.36066e-16,-38.5526,38.5526,2.36066e-16,15.4729,50.1095)"><stop offset="0" style="stop-color:#ef6926;stop-opacity:1"/><stop offset="1" style="stop-color:#fdbc1c;stop-opacity:1"/></linearGradient><linearGradient id="_Linear7" x1="0" y1="0" x2="1" y2="0" gradientUnits="userSpaceOnUse" gradientTransform="matrix(1.73207e-16,-28.2868,28.2868,1.73207e-16,43.6755,39.8441)"><stop offset="0" style="stop-color:#ef6926;stop-opacity:1"/><stop offset="1" style="stop-color:#fdbc1c;stop-opacity:1"/></linearGradient><linearGradient id="_Linear8" x1="0" y1="0" x2="1" y2="0" gradientUnits="userSpaceOnUse" gradientTransform="matrix(1.73207e-16,-28.2868,28.2868,1.73207e-16,70.6786,39.8441)"><stop offset="0" style="stop-color:#ef6926;stop-opacity:1"/><stop offset="1" style="stop-color:#fdbc1c;stop-opacity:1"/></linearGradient><linearGradient id="_Linear9" x1="0" y1="0" x2="1" y2="0" gradientUnits="userSpaceOnUse" gradientTransform="matrix(1.73207e-16,-28.2868,28.2868,1.73207e-16,94.669,39.8441)"><stop offset="0" style="stop-color:#ef6926;stop-opacity:1"/><stop offset="1" style="stop-color:#fdbc1c;stop-opacity:1"/></linearGradient><linearGradient id="_Linear10" x1="0" y1="0" x2="1" y2="0" gradientUnits="userSpaceOnUse" gradientTransform="matrix(1.73207e-16,-28.2868,28.2868,1.73207e-16,118.743,39.8441)"><stop offset="0" style="stop-color:#ef6926;stop-opacity:1"/><stop offset="1" style="stop-color:#fdbc1c;stop-opacity:1"/></linearGradient></defs></svg>