<?xml version="1.0" encoding="UTF-8" standalone="no"?><!DOCTYPE svg PUBLIC "-//W3C//DTD SVG 1.1//EN" "http://www.w3.org/Graphics/SVG/1.1/DTD/svg11.dtd"><svg width="100%" height="100%" viewBox="0 0 161 57" version="1.1" xmlns="http://www.w3.org/2000/svg" xmlns:xlink="http://www.w3.org/1999/xlink" xml:space="preserve" xmlns:serif="http://www.serif.com/" style="fill-rule:evenodd;clip-rule:evenodd;stroke-linejoin:round;stroke-miterlimit:1.41421;"><g id="brand_infitting_logo"><path d="M25.354,18.996c1.499,-1.191 3.086,-2.117 4.939,-2.117c1.588,0 2.514,0.75 2.117,2.425l-0.441,1.984c1.853,-2.646 4.675,-4.409 7.232,-4.409c2.338,0 4.015,1.853 3,6.483l-2.162,10.143c-0.264,1.278 0.309,1.808 1.191,1.808c1.632,0 3.528,-1.102 4.63,-2.205c0.487,0.221 0.751,0.618 0.751,1.058c0,0.308 -0.133,0.662 -0.397,0.971c-2.072,2.338 -5.027,4.365 -7.983,4.365c-2.205,0 -4.542,-1.103 -3.44,-6.261l1.853,-8.777c0.397,-1.853 -0.221,-2.601 -1.19,-2.601c-1.191,0 -2.956,1.102 -3.925,2.293l-2.692,12.568c-0.44,2.029 -2.117,2.778 -3.704,2.778c-0.794,0 -1.544,-0.219 -2.072,-0.573l3.616,-16.935c0.176,-0.706 -0.045,-1.102 -0.441,-1.102c-0.221,0 -0.485,0.176 -0.882,0.529c-0.573,-0.353 -0.881,-1.72 0,-2.425Z" style="fill:#3d3d3d;fill-rule:nonzero;"/><path d="M50.66,14.802c-0.662,0.307 -1.28,0.44 -1.853,0.44c-2.292,0 -3.748,-1.988 -3.616,-4.101c0.339,-5.405 5.26,-6.507 9.45,-6.555c8.752,-0.101 13.352,7.791 17.345,1.259c0,0 2.301,2.778 0.824,6.597c-0.928,2.403 -3.559,2.86 -5.751,2.106c-2.701,-0.93 -4.383,-5.231 -7.795,-5.418l-2,9.298c4.431,4.161 6.345,-1.797 11.076,-0.367c0,0 -3.273,1.19 -5.33,3.327c-1.355,1.407 -4.275,3.149 -6.58,0.849l-4.178,19.594c-2.208,11.089 -7.267,10.133 -7.752,9.779l9.68,-43.295c-2.638,-0.452 -4.53,1.198 -4.403,3.929c0.035,0.748 0.266,1.851 0.883,2.558Z" style="fill:#3d3d3d;fill-rule:nonzero;"/><path d="M62.089,23.409c0.133,-0.705 1.069,-4.271 4.894,-5.112c1.551,-0.341 1.491,-0.668 1.138,1.007l-2.69,12.745c-0.53,2.47 0.176,3.264 1.323,3.264c1.632,0 3.528,-1.102 4.631,-2.205c0.484,0.221 0.748,0.618 0.748,1.058c0,0.308 -0.131,0.662 -0.396,0.971c-2.072,2.338 -5.028,4.365 -7.983,4.365c-2.205,0 -4.762,-1.234 -3.925,-5.247l2.26,-10.846Z" style="fill:#3d3d3d;fill-rule:nonzero;"/><g><path d="M100.957,14.277c1.719,0 3.174,-1.368 3.44,-3.088c0.176,-1.72 -1.103,-3.087 -2.823,-3.087c-1.72,0 -3.176,1.366 -3.352,3.087c-0.266,1.72 1.014,3.088 2.735,3.088Z" style="fill:#3d3d3d;fill-rule:nonzero;"/><path d="M105.763,33.108c-1.102,1.103 -2.998,2.205 -4.63,2.205c-1.148,0 -1.853,-0.794 -1.324,-3.264l2.647,-12.524c0.352,-1.677 -0.529,-2.426 -2.117,-2.426l-9.57,0l1.235,-5.822c-0.529,-0.352 -1.28,-0.573 -2.074,-0.573c-1.587,0 -3.264,0.751 -3.704,2.78l-0.793,3.616l-0.884,0l-4.855,0l1.235,-5.823c-0.529,-0.352 -1.279,-0.573 -2.073,-0.573c-1.587,0 -3.264,0.751 -3.704,2.78l-0.794,3.616l-0.883,0c-1.366,0 -2.072,1.145 -1.851,2.557l2.204,0l-2.822,13.319c-1.015,4.851 0.748,6.526 3.44,6.526c2.563,0 5.424,-1.527 7.492,-3.458c0.448,2.702 2.645,3.458 4.331,3.458c2.471,0 6.087,-2.072 6.087,-5.158c0,-0.751 -0.485,-1.19 -1.323,-1.19c-0.661,1.587 -1.675,2.115 -2.469,2.115c-0.883,0 -1.456,-0.97 -0.971,-3.22l2.602,-12.392l5.911,0c0.705,0 1.102,0.354 0.926,1.102l-2.822,13.497c-0.839,4.013 1.719,5.247 3.925,5.247c2.953,0 5.908,-2.027 7.982,-4.365c0.264,-0.309 0.397,-0.663 0.397,-0.972c-0.001,-0.44 -0.266,-0.837 -0.751,-1.058Zm-23.683,-0.133c-0.042,0.202 -0.067,0.386 -0.097,0.576c-1.122,0.936 -2.73,1.762 -4.142,1.762c-1.145,0 -1.853,-0.794 -1.323,-3.264l2.602,-12.393l5.783,0l-2.823,13.319Z" style="fill:#3d3d3d;fill-rule:nonzero;"/></g><path d="M106.394,18.996c1.499,-1.191 3.086,-2.117 4.939,-2.117c1.588,0 2.514,0.75 2.117,2.425l-0.442,1.984c1.853,-2.646 4.676,-4.409 7.232,-4.409c2.338,0 4.015,1.853 3.001,6.483l-2.162,10.143c-0.264,1.278 0.309,1.808 1.19,1.808c1.633,0 3.528,-1.102 4.631,-2.205c0.487,0.221 0.751,0.618 0.751,1.058c0,0.308 -0.133,0.662 -0.397,0.971c-2.072,2.338 -5.028,4.365 -7.983,4.365c-2.205,0 -4.543,-1.103 -3.44,-6.261l1.853,-8.777c0.396,-1.853 -0.221,-2.601 -1.191,-2.601c-1.19,0 -2.955,1.102 -3.924,2.293l-2.692,12.568c-0.44,2.029 -2.117,2.778 -3.704,2.778c-0.794,0 -1.544,-0.219 -2.072,-0.573l3.616,-16.935c0.176,-0.706 -0.045,-1.102 -0.442,-1.102c-0.22,0 -0.484,0.176 -0.881,0.529c-0.573,-0.353 -0.882,-1.72 0,-2.425Z" style="fill:#3d3d3d;fill-rule:nonzero;"/><path d="M143.451,34.916c-0.442,2.029 -0.927,4.189 -1.499,6.306c4.806,0.309 9.524,1.014 12.744,1.014c1.941,0 3.97,-0.396 5.205,-1.278c1.278,3.704 -0.485,6.571 -3.573,6.571c-4.631,0 -9.658,-2.116 -15.303,-3.176c-2.117,6.351 -5.469,11.777 -11.951,11.777c-2.514,0 -5.072,-2.207 -5.072,-5.426c0,-6.173 5.821,-9.173 12.701,-9.525c0.53,-1.72 1.058,-3.616 1.675,-5.778c-1.808,2.425 -4.058,4.101 -6.439,4.101c-4.585,0 -5.512,-4.586 -5.512,-7.409c0,-7.717 4.983,-15.391 11.114,-15.391c1.985,0 3.396,0.485 4.498,1.455c0.749,-0.882 1.941,-1.278 3.043,-1.278c0.795,0 1.543,0.22 2.073,0.572l-3.704,17.465Zm-7.586,8.865l-0.882,0c-4.322,0 -7.41,2.777 -7.41,6.35c0,1.411 1.06,2.072 1.81,2.072c2.823,0 4.541,-2.556 6.482,-8.422Zm5.336,-23.419c-0.749,-0.264 -1.411,-0.352 -2.072,-0.352c-5.336,0 -7.232,6.968 -7.232,11.775c0,2.205 1.013,3.176 2.381,3.176c1.411,0 3.264,-1.147 4.454,-2.779l2.469,-11.82Z" style="fill:#3d3d3d;fill-rule:nonzero;"/><path d="M27.429,1.049c-1.792,1.195 -8.207,0.095 -10.248,0.007c-2.04,-0.086 -12.057,-2.096 -15.703,6.955c-2.23,5.535 0.554,11.98 4.057,13.195c2.401,0.833 3.734,-1.079 3.734,-1.079c-4.688,-4.447 -2.56,-17.097 8.747,-16.229c1.015,0.078 2.002,0.122 2.912,0.145l-9.228,37.933c0.487,0.354 5.915,0.944 7.865,-7.76l6.631,-30.35c2.395,-0.729 1.233,-2.817 1.233,-2.817Z" style="fill:#3d3d3d;fill-rule:nonzero;"/></g></svg>